<?xml version="1.0" encoding="UTF-8" standalone="no"?>
<svg
   viewBox="0 0 500 500"
   version="1.1"
   id="svg296"
   sodipodi:docname="Key-pana.svg"
   inkscape:version="1.2.2 (b0a8486541, 2022-12-01)"
   xmlns:inkscape="http://www.inkscape.org/namespaces/inkscape"
   xmlns:sodipodi="http://sodipodi.sourceforge.net/DTD/sodipodi-0.dtd"
   xmlns="http://www.w3.org/2000/svg"
   xmlns:svg="http://www.w3.org/2000/svg">
  <defs
     id="defs300" />
  <sodipodi:namedview
     id="namedview298"
     pagecolor="#505050"
     bordercolor="#ffffff"
     borderopacity="1"
     inkscape:showpageshadow="0"
     inkscape:pageopacity="0"
     inkscape:pagecheckerboard="1"
     inkscape:deskcolor="#505050"
     showgrid="false"
     inkscape:zoom="1.2586501"
     inkscape:cx="127.51757"
     inkscape:cy="260.99391"
     inkscape:window-width="1920"
     inkscape:window-height="1051"
     inkscape:window-x="-9"
     inkscape:window-y="-9"
     inkscape:window-maximized="1"
     inkscape:current-layer="svg296" />
  <g
     id="g678"
     transform="matrix(1.0775994,0,0,1.0775994,-19.281321,-16.310084)"
     style="stroke-width:0.927989">
    <g
       id="freepik--background-complete--inject-7"
       style="stroke-width:0.927989">
      <path
         d="m 92.62,86.64 49.75,101.25 a 4.3,4.3 0 0 1 -2,5.76 v 0 a 4.3,4.3 0 0 1 -5.75,-2 L 84.9,90.44 a 4.3,4.3 0 0 1 2,-5.76 v 0 a 4.31,4.31 0 0 1 5.72,1.96 z"
         style="fill:#e0e0e0;stroke-width:0.927989"
         id="path2" />
      <rect
         x="123.9"
         y="166.53999"
         width="23.24"
         height="5.8099999"
         transform="rotate(-116.17,135.51667,169.44422)"
         style="fill:#e0e0e0;stroke-width:0.927989"
         id="rect4" />
      <path
         d="m 126.86,148.83 v 0 a 4,4 0 0 1 -1.84,5.39 l -7.71,3.78 a 4,4 0 0 1 -5.39,-1.84 v 0 a 4,4 0 0 1 1.84,-5.39 l 7.71,-3.79 a 4,4 0 0 1 5.39,1.85 z"
         style="fill:#e0e0e0;stroke-width:0.927989"
         id="path6" />
      <polygon
         points="145.02,159.03 141.24,160.89 139.48,157.31 143.26,155.45 140.47,149.78 129.71,155.07 143.43,182.99 154.19,177.7 151.39,172 146,174.64 144.25,171.06 149.63,168.42 "
         style="fill:#e0e0e0;stroke-width:0.927989"
         id="polygon8" />
      <rect
         x="84.730003"
         y="80.279999"
         width="9.8199997"
         height="17.02"
         transform="rotate(-116.17,89.641643,88.788604)"
         style="fill:#e0e0e0;stroke-width:0.927989"
         id="rect10" />
      <path
         d="m 63.54,57.72 a 8.91,8.91 0 0 0 0.57,1 17.93,17.93 0 0 0 -6.72,23.19 v 0 a 18,18 0 0 0 24,8.19 l 13.47,-6.63 a 17.93,17.93 0 0 0 8.19,-24 v 0 A 17.93,17.93 0 0 0 80.2,50.78 c -0.13,-0.35 -0.27,-0.7 -0.43,-1 a 9.0472772,9.0472772 0 0 0 -16.23,8 z M 82.78,57.07 A 11.1,11.1 0 1 1 83.59,77.35 11.1,11.1 0 1 1 77,64 11.07,11.07 0 0 1 82.78,57.07 Z m -7.52,-5.76 a 4.3,4.3 0 1 1 -5.76,-2 4.32,4.32 0 0 1 5.76,2 z"
         style="fill:#e0e0e0;stroke-width:0.927989"
         id="path12" />
      <rect
         x="350.73001"
         y="318.72"
         width="138.08"
         height="9.7799997"
         rx="3.7119544"
         transform="rotate(101.52,419.77705,323.62877)"
         style="fill:#e0e0e0;stroke-width:0.927989"
         id="rect14"
         ry="3.7119544" />
      <rect
         x="407.92001"
         y="277.84"
         width="26.43"
         height="6.6100001"
         transform="rotate(101.52,421.1408,281.15707)"
         style="fill:#e0e0e0;stroke-width:0.927989"
         id="rect16" />
      <rect
         x="419.29001"
         y="298.13"
         width="9.1599998"
         height="18.93"
         rx="3.4799573"
         transform="rotate(101.53,423.86791,307.57578)"
         style="fill:#e0e0e0;stroke-width:0.927989"
         id="rect18"
         ry="3.4799573" />
      <polygon
         points="405.35,283.9 410.04,284.86 409.13,289.3 404.44,288.35 403.01,295.39 416.37,298.11 423.44,263.45 410.08,260.72 408.63,267.8 415.31,269.17 414.41,273.61 407.73,272.25 "
         style="fill:#e0e0e0;stroke-width:0.927989"
         id="polygon20" />
      <rect
         x="400.76001"
         y="375.95001"
         width="11.17"
         height="19.35"
         transform="rotate(101.52,406.33686,385.65256)"
         style="fill:#e0e0e0;stroke-width:0.927989"
         id="rect22" />
      <path
         d="m 408.22,431.74 a 9.67,9.67 0 0 0 0.18,-1.3 20.41,20.41 0 0 0 22.18,-16.2 v 0 a 20.4,20.4 0 0 0 -15.91,-24.06 l -16.74,-3.41 a 20.39,20.39 0 0 0 -24.05,15.91 v 0 a 20.38,20.38 0 0 0 14.52,23.72 12.35,12.35 0 0 0 -0.33,1.23 10.282444,10.282444 0 0 0 20.15,4.11 z m -17.76,-12.8 a 12.62,12.62 0 1 1 13.37,-18.81 12.62,12.62 0 1 1 -3.39,16.63 12.61,12.61 0 0 1 -9.98,2.18 z m 2.76,10.42 a 4.89,4.89 0 1 1 3.81,5.77 4.89,4.89 0 0 1 -3.81,-5.77 z"
         style="fill:#e0e0e0;stroke-width:0.927989"
         id="path24" />
      <rect
         x="392.39999"
         y="53.779999"
         width="9.0799999"
         height="45.18"
         transform="rotate(-0.31,393.47649,74.994858)"
         style="fill:#e0e0e0;stroke-width:0.927989"
         id="rect26" />
      <rect
         x="313.69"
         y="53.939999"
         width="23.51"
         height="24.940001"
         transform="rotate(-0.31,321.41988,65.558626)"
         style="fill:#ebebeb;stroke-width:0.927989"
         id="rect28" />
      <rect
         x="337.09"
         y="53.810001"
         width="23.51"
         height="24.940001"
         transform="rotate(-0.31,345.44708,65.623626)"
         style="fill:#f5f5f5;stroke-width:0.927989"
         id="rect30" />
      <path
         d="m 313.66,60.89 q 23.44,0.2 46.92,-0.21 a 0.25,0.25 0 0 0 0,-0.5 c -15.62,-0.09 -31.29,0 -46.91,0.28 a 0.22,0.22 0 0 0 0,0.43 z"
         style="fill:#e0e0e0;stroke-width:0.927989"
         id="path32" />
      <rect
         x="299.01999"
         y="78.519997"
         width="42.720001"
         height="20.33"
         transform="rotate(-0.31,317.66339,87.727583)"
         style="fill:#ebebeb;stroke-width:0.927989"
         id="rect34" />
      <rect
         x="341.54001"
         y="78.290001"
         width="42.720001"
         height="20.33"
         transform="rotate(-0.31,360.17306,87.842583)"
         style="fill:#f5f5f5;stroke-width:0.927989"
         id="rect36" />
      <path
         d="m 299,84.29 c 28.38,0.32 56.86,0 85.24,-0.43 a 0.25,0.25 0 0 0 0,-0.5 C 355.86,83.21 327.38,83.23 299,83.86 a 0.22,0.22 0 0 0 0,0.43 z"
         style="fill:#e0e0e0;stroke-width:0.927989"
         id="path38" />
      <rect
         x="283.01999"
         y="98.959999"
         width="165.50999"
         height="7.2800002"
         style="fill:#e0e0e0;stroke-width:0.927989"
         id="rect40" />
      <rect
         x="310.12"
         y="102.46"
         width="6.7199998"
         height="24.85"
         style="fill:#e0e0e0;stroke-width:0.927989"
         id="rect42" />
      <rect
         x="410.41"
         y="102.46"
         width="6.7199998"
         height="24.85"
         style="fill:#e0e0e0;stroke-width:0.927989"
         id="rect44" />
      <rect
         x="401.31"
         y="36.939999"
         width="9.0799999"
         height="62.139999"
         transform="matrix(1,-0.01,0.01,1,-0.36,2.18)"
         style="fill:#ebebeb;stroke-width:0.927989"
         id="rect46" />
      <rect
         x="410.44"
         y="48.52"
         width="14.11"
         height="50.360001"
         transform="rotate(-0.31,413.8122,73.201611)"
         style="fill:#f5f5f5;stroke-width:0.927989"
         id="rect48" />
      <path
         d="m 424.32,58.18 a 50.7,50.7 0 0 1 -7.06,0.24 50.49,50.49 0 0 1 -7.05,-0.24 103.81,103.81 0 0 1 14.11,0 z"
         style="fill:#e0e0e0;stroke-width:0.927989"
         id="path50" />
      <path
         d="m 424.32,56.07 a 52.62,52.62 0 0 1 -7.06,0.24 52.41,52.41 0 0 1 -7.05,-0.24 99.67,99.67 0 0 1 14.11,0 z"
         style="fill:#e0e0e0;stroke-width:0.927989"
         id="path52" />
      <path
         d="m 424.32,91.26 a 103.81,103.81 0 0 1 -14.11,0 99.67,99.67 0 0 1 14.11,0 z"
         style="fill:#e0e0e0;stroke-width:0.927989"
         id="path54" />
      <path
         d="m 424.32,89.14 a 99.67,99.67 0 0 1 -14.11,0 103.81,103.81 0 0 1 14.11,0 z"
         style="fill:#e0e0e0;stroke-width:0.927989"
         id="path56" />
      <path
         d="m 417.49,84.53 c -0.14,0 -0.25,-5.08 -0.25,-11.35 0,-6.27 0.11,-11.35 0.25,-11.35 0.14,0 0.24,5.08 0.24,11.35 0,6.27 -0.11,11.35 -0.24,11.35 z"
         style="fill:#e0e0e0;stroke-width:0.927989"
         id="path58" />
      <rect
         x="424.47"
         y="60.84"
         width="15.36"
         height="38.009998"
         style="fill:#ebebeb;stroke-width:0.927989"
         id="rect60" />
      <path
         d="m 408.16,47.52 a 2.61,2.61 0 1 1 -2.61,-2.61 2.61,2.61 0 0 1 2.61,2.61 z"
         style="fill:#e0e0e0;stroke-width:0.927989"
         id="path62" />
      <rect
         x="404.73999"
         y="54.700001"
         width="1.61"
         height="36.959999"
         style="fill:#e0e0e0;stroke-width:0.927989"
         id="rect64" />
      <polygon
         points="104.7,324.69 116.64,278.35 111.55,278.35 100.05,324.69 "
         style="fill:#ebebeb;stroke-width:0.927989"
         id="polygon66" />
      <polygon
         points="151.73,324.69 139.79,278.35 144.89,278.35 156.39,324.69 "
         style="fill:#ebebeb;stroke-width:0.927989"
         id="polygon68" />
      <rect
         x="124.95"
         y="265.75"
         width="5.4200001"
         height="58.93"
         style="fill:#ebebeb;stroke-width:0.927989"
         id="rect70" />
      <rect
         x="89.260002"
         y="218.49001"
         width="76.529999"
         height="49.029999"
         style="fill:#e0e0e0;stroke-width:0.927989"
         id="rect72" />
      <rect
         x="108.35"
         y="277.60001"
         width="38.41"
         height="4.73"
         style="fill:#ebebeb;stroke-width:0.927989"
         id="rect74" />
      <path
         d="m 94.35,261.12 a 4.5,4.5 0 0 1 0.05,0.9 h -0.1 c -0.08,-2.4 -0.14,-10.34 -0.14,-19.76 0,-5.68 0,-10.82 0.06,-14.6 0,-1.83 0,-3.33 0.06,-4.43 q 0,-0.73 0,-1.2 a 1.69,1.69 0 0 1 0,-0.42 1.69,1.69 0 0 1 0,0.42 q 0,0.47 0,1.2 c 0,1.1 0,2.6 0.06,4.43 0,3.78 0,8.92 0.06,14.6 0,9.42 -0.06,17.36 -0.14,19.76 h -0.1 a 4.5,4.5 0 0 1 0.19,-0.9 z"
         style="fill:#f5f5f5;stroke-width:0.927989"
         id="path76" />
      <path
         d="m 100.05,261.12 a 8.16,8.16 0 0 1 0,0.9 H 100 c -0.07,-2.4 -0.13,-10.34 -0.13,-19.76 0,-5.68 0,-10.82 0,-14.6 0,-1.83 0,-3.33 0.06,-4.43 0,-0.49 0,-0.89 0,-1.2 a 1.24,1.24 0 0 1 0,-0.42 2.24,2.24 0 0 1 0,0.42 c 0,0.31 0,0.71 0,1.2 0,1.1 0,2.6 0.06,4.43 0,3.78 0,8.92 0,14.6 0,9.42 0,17.36 -0.13,19.76 H 100 a 4.85,4.85 0 0 1 0.05,-0.9 z"
         style="fill:#f5f5f5;stroke-width:0.927989"
         id="path78" />
      <path
         d="m 105.74,261.12 a 4.5,4.5 0 0 1 0.05,0.9 h -0.1 c -0.08,-2.4 -0.14,-10.34 -0.14,-19.76 0,-5.68 0,-10.82 0.06,-14.6 0,-1.83 0,-3.33 0.06,-4.43 q 0,-0.73 0,-1.2 a 2.7,2.7 0 0 1 0,-0.42 1.24,1.24 0 0 1 0,0.42 c 0,0.31 0,0.71 0,1.2 0,1.1 0,2.6 0.06,4.43 0,3.78 0,8.92 0.05,14.6 0,9.42 -0.06,17.36 -0.14,19.76 h -0.1 a 5.8,5.8 0 0 1 0.2,-0.9 z"
         style="fill:#f5f5f5;stroke-width:0.927989"
         id="path80" />
      <path
         d="m 111.44,261.12 a 5.8,5.8 0 0 1 0,0.9 h -0.1 c -0.08,-2.4 -0.14,-10.34 -0.14,-19.76 0,-5.68 0,-10.82 0,-14.6 0,-1.83 0,-3.33 0.06,-4.43 0,-0.49 0,-0.89 0,-1.2 a 1.69,1.69 0 0 1 0,-0.42 2.7,2.7 0 0 1 0,0.42 q 0,0.47 0,1.2 c 0,1.1 0,2.6 0.06,4.43 0,3.78 0,8.92 0.06,14.6 0,9.42 -0.06,17.36 -0.14,19.76 h -0.1 a 4.5,4.5 0 0 1 0.3,-0.9 z"
         style="fill:#f5f5f5;stroke-width:0.927989"
         id="path82" />
      <path
         d="m 117.13,261.12 a 4.85,4.85 0 0 1 0.06,0.9 h -0.11 c -0.08,-2.4 -0.13,-10.34 -0.13,-19.76 0,-5.68 0,-10.82 0,-14.6 0,-1.83 0,-3.33 0.06,-4.43 0,-0.49 0,-0.89 0,-1.2 a 2.24,2.24 0 0 1 0,-0.42 1.24,1.24 0 0 1 0,0.42 c 0,0.31 0,0.71 0,1.2 0,1.1 0,2.6 0.06,4.43 0,3.78 0,8.92 0,14.6 0,9.42 -0.06,17.36 -0.13,19.76 h -0.11 a 8.16,8.16 0 0 1 0.3,-0.9 z"
         style="fill:#f5f5f5;stroke-width:0.927989"
         id="path84" />
      <path
         d="m 122.83,261.12 a 4.5,4.5 0 0 1 0,0.9 h -0.1 c -0.08,-2.4 -0.14,-10.34 -0.14,-19.76 0,-5.68 0,-10.82 0.06,-14.6 0,-1.83 0,-3.33 0.06,-4.43 q 0,-0.73 0,-1.2 a 1.69,1.69 0 0 1 0,-0.42 1.69,1.69 0 0 1 0,0.42 q 0,0.47 0,1.2 c 0,1.1 0,2.6 0.06,4.43 0,3.78 0,8.92 0.06,14.6 0,9.42 -0.06,17.36 -0.14,19.76 h -0.1 a 4.5,4.5 0 0 1 0.24,-0.9 z"
         style="fill:#f5f5f5;stroke-width:0.927989"
         id="path86" />
      <path
         d="m 128.53,261.12 a 8.16,8.16 0 0 1 0.05,0.9 h -0.11 c -0.08,-2.4 -0.13,-10.34 -0.13,-19.76 0,-5.68 0,-10.82 0,-14.6 0,-1.83 0.05,-3.33 0.06,-4.43 0,-0.49 0,-0.89 0,-1.2 a 1.24,1.24 0 0 1 0,-0.42 2.24,2.24 0 0 1 0,0.42 c 0,0.31 0,0.71 0,1.2 0,1.1 0,2.6 0.06,4.43 0,3.78 0,8.92 0.05,14.6 0,9.42 -0.05,17.36 -0.13,19.76 h -0.11 a 4.85,4.85 0 0 1 0.26,-0.9 z"
         style="fill:#f5f5f5;stroke-width:0.927989"
         id="path88" />
      <path
         d="m 134.22,261.12 a 4.5,4.5 0 0 1 0.05,0.9 h -0.1 c -0.08,-2.4 -0.14,-10.34 -0.14,-19.76 0,-5.68 0,-10.82 0.06,-14.6 0,-1.83 0,-3.33 0.06,-4.43 q 0,-0.73 0,-1.2 a 2.7,2.7 0 0 1 0,-0.42 1.69,1.69 0 0 1 0,0.42 c 0,0.31 0,0.71 0,1.2 0,1.1 0,2.6 0,4.43 0,3.78 0,8.92 0.06,14.6 0,9.42 -0.06,17.36 -0.14,19.76 h -0.1 a 5.8,5.8 0 0 1 0.25,-0.9 z"
         style="fill:#f5f5f5;stroke-width:0.927989"
         id="path90" />
      <path
         d="m 139.92,261.12 a 5.8,5.8 0 0 1 0.05,0.9 h -0.1 c -0.08,-2.4 -0.14,-10.34 -0.14,-19.76 0,-5.68 0,-10.82 0.05,-14.6 0,-1.83 0.05,-3.33 0.06,-4.43 0,-0.49 0,-0.89 0,-1.2 a 1.24,1.24 0 0 1 0,-0.42 2.7,2.7 0 0 1 0,0.42 c 0,0.31 0,0.71 0,1.2 0,1.1 0,2.6 0.06,4.43 0,3.78 0,8.92 0.06,14.6 0,9.42 -0.06,17.36 -0.14,19.76 h -0.1 a 4.5,4.5 0 0 1 0.2,-0.9 z"
         style="fill:#f5f5f5;stroke-width:0.927989"
         id="path92" />
      <path
         d="m 145.61,261.12 a 4.85,4.85 0 0 1 0.06,0.9 h -0.11 c -0.08,-2.4 -0.14,-10.34 -0.14,-19.76 0,-5.68 0.05,-10.82 0.06,-14.6 0,-1.83 0.05,-3.33 0.06,-4.43 0,-0.49 0,-0.89 0,-1.2 a 2.24,2.24 0 0 1 0,-0.42 1.24,1.24 0 0 1 0,0.42 c 0,0.31 0,0.71 0,1.2 0,1.1 0,2.6 0.06,4.43 0,3.78 0,8.92 0.05,14.6 0,9.42 -0.06,17.36 -0.13,19.76 h -0.11 a 8.16,8.16 0 0 1 0.2,-0.9 z"
         style="fill:#f5f5f5;stroke-width:0.927989"
         id="path94" />
      <path
         d="m 151.31,261.12 a 5.8,5.8 0 0 1 0.05,0.9 h -0.1 c -0.08,-2.4 -0.14,-10.34 -0.14,-19.76 0,-5.68 0,-10.82 0.06,-14.6 0,-1.83 0,-3.33 0.06,-4.43 q 0,-0.73 0,-1.2 a 1.69,1.69 0 0 1 0,-0.42 2.7,2.7 0 0 1 0,0.42 q 0,0.47 0,1.2 c 0,1.1 0,2.6 0.06,4.43 0,3.78 0,8.92 0.06,14.6 0,9.42 -0.06,17.36 -0.14,19.76 h -0.1 a 4.5,4.5 0 0 1 0.19,-0.9 z"
         style="fill:#f5f5f5;stroke-width:0.927989"
         id="path96" />
      <path
         d="m 157,261.12 a 8.16,8.16 0 0 1 0.05,0.9 H 157 c -0.08,-2.4 -0.13,-10.34 -0.13,-19.76 0,-5.68 0,-10.82 0.05,-14.6 0,-1.83 0,-3.33 0.06,-4.43 0,-0.49 0,-0.89 0,-1.2 a 1.24,1.24 0 0 1 0,-0.42 2.24,2.24 0 0 1 0,0.42 c 0,0.31 0,0.71 0,1.2 0,1.1 0,2.6 0.06,4.43 0,3.78 0,8.92 0.05,14.6 0,9.42 -0.05,17.36 -0.13,19.76 H 157 a 4.85,4.85 0 0 1 0,-0.9 z"
         style="fill:#f5f5f5;stroke-width:0.927989"
         id="path98" />
      <path
         d="m 162.7,261.12 a 4.5,4.5 0 0 1 0.05,0.9 h -0.1 c -0.08,-2.4 -0.14,-10.34 -0.14,-19.76 0,-5.68 0,-10.82 0.06,-14.6 0,-1.83 0,-3.33 0.06,-4.43 q 0,-0.73 0,-1.2 a 2.7,2.7 0 0 1 0,-0.42 1.69,1.69 0 0 1 0,0.42 q 0,0.47 0,1.2 c 0,1.1 0,2.6 0.06,4.43 0,3.78 0,8.92 0.06,14.6 0,9.42 -0.06,17.36 -0.14,19.76 h -0.1 a 5.8,5.8 0 0 1 0.19,-0.9 z"
         style="fill:#f5f5f5;stroke-width:0.927989"
         id="path100" />
      <rect
         x="58.040001"
         y="318.95999"
         width="199.5"
         height="92.010002"
         style="fill:#f5f5f5;stroke-width:0.927989"
         id="rect102" />
      <path
         d="M 252.79,406.63 H 62.61 V 323.81 H 252.79 Z M 63.85,405.39 h 187.7 V 325.05 H 63.85 Z"
         style="fill:#e0e0e0;stroke-width:0.927989"
         id="path104" />
      <rect
         x="257.54001"
         y="318.95999"
         width="48.740002"
         height="92.010002"
         style="fill:#e0e0e0;stroke-width:0.927989"
         id="rect106" />
      <path
         d="m 63.23,349.44 h 188.94 a 0.25,0.25 0 0 0 0,-0.5 H 63.23 a 0.25,0.25 0 0 0 0,0.5 z"
         style="fill:#e0e0e0;stroke-width:0.927989"
         id="path108" />
      <path
         d="m 158.32,349.19 a 208.36,208.36 0 0 0 0.06,-25 0.26,0.26 0 0 0 -0.51,0 206.3,206.3 0 0 0 0.07,25 0.19,0.19 0 0 0 0.38,0 z"
         style="fill:#e0e0e0;stroke-width:0.927989"
         id="path110" />
      <path
         d="m 209.17,336.69 a 2.57,2.57 0 1 1 -2.57,-2.57 2.58,2.58 0 0 1 2.57,2.57 z"
         style="fill:#e0e0e0;stroke-width:0.927989"
         id="path112" />
      <path
         d="m 110,336.69 a 2.58,2.58 0 1 1 -2.58,-2.57 2.58,2.58 0 0 1 2.58,2.57 z"
         style="fill:#e0e0e0;stroke-width:0.927989"
         id="path114" />
      <path
         d="m 160.28,365.22 a 2.58,2.58 0 1 1 -2.58,-2.57 2.58,2.58 0 0 1 2.58,2.57 z"
         style="fill:#e0e0e0;stroke-width:0.927989"
         id="path116" />
      <polygon
         points="78.05,466.53 96.34,410.97 81.9,410.97 72.27,466.53 "
         style="fill:#e0e0e0;stroke-width:0.927989"
         id="polygon118" />
      <polygon
         points="246.24,466.53 228.98,410.97 243.43,410.97 252.01,466.53 "
         style="fill:#e0e0e0;stroke-width:0.927989"
         id="polygon120" />
      <polygon
         points="286.43,466.53 267.55,410.97 281.99,410.97 292.21,466.53 "
         style="fill:#e0e0e0;stroke-width:0.927989"
         id="polygon122" />
      <path
         d="m 160.1,391.26 a 2.58,2.58 0 1 1 -2.57,-2.58 2.57,2.57 0 0 1 2.57,2.58 z"
         style="fill:#e0e0e0;stroke-width:0.927989"
         id="path124" />
      <path
         d="m 63.23,377.93 h 188.94 a 0.25,0.25 0 0 0 0,-0.5 H 63.23 a 0.25,0.25 0 0 0 0,0.5 z"
         style="fill:#e0e0e0;stroke-width:0.927989"
         id="path126" />
      <rect
         x="418.23001"
         y="175.66"
         width="48.650002"
         height="12.87"
         style="fill:#f5f5f5;stroke-width:0.927989"
         id="rect128" />
      <path
         d="m 446.31,202.09 a 2.07,2.07 0 0 1 0,-0.23 v -0.66 c 0,-0.61 0,-1.45 0,-2.54 0,-2.22 0,-5.41 -0.08,-9.44 l 0.15,0.15 -48.65,0.1 0.25,-0.25 v 0 3.27 c 0,1.09 0,2.18 0,3.25 v 6.33 l -0.24,-0.24 34.67,0.11 10.23,0.07 h 2.77 0.72 0.26 c 0,0 -0.07,0 -0.22,0 h -0.7 -2.71 l -10.18,0.07 -34.84,0.11 h -0.24 v -0.24 q 0,-3.1 0,-6.33 v -6.52 0 l 0.25,-0.25 48.65,0.1 h 0.15 v 0.15 c 0,4.07 -0.06,7.29 -0.08,9.53 0,1.07 0,1.91 0,2.5 0,0.26 0,0.47 0,0.64 0,0.17 -0.15,0.33 -0.16,0.32 z"
         style="fill:#e0e0e0;stroke-width:0.927989"
         id="path130" />
      <path
         d="m 370.21,314.93 a 1,1 0 0 1 0,-0.23 v -0.66 c 0,-0.61 0,-1.45 0,-2.54 0,-2.22 -0.05,-5.41 -0.09,-9.44 l 0.16,0.15 -48.65,0.1 c 0.11,-0.11 -0.25,0.25 0.24,-0.25 v 0 12.85 l -0.25,-0.24 34.67,0.11 10.24,0.07 h 2.77 0.72 0.26 -0.23 -0.69 -2.72 l -10.18,0.07 -34.84,0.11 h -0.24 v -12.95 0 c 0.5,-0.5 0.14,-0.14 0.26,-0.25 l 48.65,0.1 h 0.15 v 0.15 c 0,4.07 -0.07,7.29 -0.09,9.53 0,1.07 0,1.91 0,2.5 0,0.26 0,0.47 0,0.64 a 1.23,1.23 0 0 1 -0.14,0.18 z"
         style="fill:#e0e0e0;stroke-width:0.927989"
         id="path132" />
      <rect
         x="53.720001"
         y="180.81"
         width="48.650002"
         height="12.87"
         style="fill:#f5f5f5;stroke-width:0.927989"
         id="rect134" />
      <path
         d="m 81.8,207.24 a 1.35,1.35 0 0 1 0,-0.24 c 0,-0.17 0,-0.39 0,-0.66 0,-0.6 0,-1.45 0,-2.53 0,-2.22 0,-5.42 -0.08,-9.45 l 0.15,0.15 -48.65,0.1 c 0.11,-0.11 -0.25,0.25 0.24,-0.25 v 0 12.87 l -0.24,-0.25 34.67,0.11 10.23,0.07 h 2.77 0.72 a 0.81,0.81 0 0 1 0.26,0 H 81.64 80.95 78.23 L 68,207.37 33.16,207.48 H 32.9 v -13.11 0 c 0.49,-0.49 0.14,-0.13 0.25,-0.24 l 48.65,0.09 H 82 v 0.15 c 0,4.07 -0.06,7.29 -0.08,9.54 0,1.07 0,1.9 0,2.5 0,0.26 0,0.47 0,0.63 a 1.66,1.66 0 0 1 -0.12,0.2 z"
         style="fill:#e0e0e0;stroke-width:0.927989"
         id="path136" />
      <path
         d="m 265.4,50.45 a 1,1 0 0 1 0,-0.23 v -0.66 c 0,-0.61 0,-1.45 0,-2.53 0,-2.23 -0.05,-5.42 -0.08,-9.45 l 0.15,0.15 -48.65,0.1 c 0.11,-0.11 -0.25,0.25 0.24,-0.25 v 0 12.87 l -0.24,-0.24 34.67,0.11 10.23,0.07 h 2.77 0.72 0.26 -0.23 -0.69 -2.72 l -10.17,0.06 -34.84,0.12 h -0.25 v -12.97 0 l 0.25,-0.25 48.65,0.1 h 0.15 v 0.15 c 0,4.07 -0.06,7.29 -0.08,9.54 0,1.06 0,1.9 0,2.49 v 0.64 a 1.23,1.23 0 0 1 -0.14,0.18 z"
         style="fill:#e0e0e0;stroke-width:0.927989"
         id="path138" />
      <path
         d="m 272,37.58 a 0.68,0.68 0 0 1 0,-0.24 c 0,-0.19 0,-0.41 0,-0.69 0,-0.63 0,-1.49 0,-2.58 0,-2.25 -0.05,-5.44 -0.09,-9.36 l 0.18,0.18 -29.32,0.11 c -0.23,0.22 0.29,-0.3 0.24,-0.25 v 0 6.62 c 0,2.15 0,4.24 0,6.24 l -0.24,-0.23 20.91,0.11 6.1,0.06 h 1.64 0.59 a 3.43,3.43 0 0 1 -0.53,0 h -1.6 l -6,0.07 -21.07,0.11 h -0.23 v -0.24 c 0,-2 0,-4.09 0,-6.24 v -6.53 0 c -0.06,0.05 0.47,-0.47 0.25,-0.25 l 29.23,0.07 h 0.18 v 0.18 c 0,4 -0.07,7.19 -0.09,9.47 0,1.07 0,1.92 -0.05,2.54 -0.05,0.62 -0.1,0.86 -0.1,0.85 z"
         style="fill:#e0e0e0;stroke-width:0.927989"
         id="path140" />
    </g>
    <g
       id="freepik--Floor--inject-7"
       style="stroke-width:0.927989">
      <path
         d="m 450.92,466.53 c 0,0.15 -90,0.26 -200.91,0.26 -110.91,0 -200.93,-0.11 -200.93,-0.26 0,-0.15 89.94,-0.26 200.93,-0.26 110.99,0 200.91,0.12 200.91,0.26 z"
         style="fill:#263238;stroke-width:0.927989"
         id="path143" />
    </g>
    <g
       id="freepik--speech-bubble--inject-7"
       style="stroke-width:0.927989">
      <path
         d="m 201,111.7 -4,-8.06 a 28.89,28.89 0 1 0 -5.25,8.92 v 0 z"
         style="fill:#ffffff;stroke-width:0.927989"
         id="path146" />
      <path
         d="m 201,111.7 -0.58,0.07 -1.74,0.19 -6.89,0.72 a 0.12,0.12 0 0 1 -0.11,-0.09 c 0,0 0,0 0,-0.06 v 0 l 0.17,0.11 a 28.94,28.94 0 0 1 -11.6,8.2 27.76,27.76 0 0 1 -4.25,1.26 31.54,31.54 0 0 1 -4.78,0.59 28.67,28.67 0 0 1 -10.39,-1.43 29.18,29.18 0 0 1 -17.42,-15.79 29.1,29.1 0 0 1 1.46,-26.33 l 0.92,-1.53 1.06,-1.44 0.53,-0.72 0.58,-0.66 1.18,-1.32 c 0.4,-0.42 0.85,-0.8 1.28,-1.2 a 13,13 0 0 1 1.31,-1.15 26.4,26.4 0 0 1 2.83,-2 28.72,28.72 0 0 1 25.05,-2.77 29,29 0 0 1 16.29,14.36 31,31 0 0 1 1.81,4.47 37.65,37.65 0 0 1 1,4.4 28.68,28.68 0 0 1 -1.52,14.09 v -0.07 c 1.26,2.63 2.24,4.66 2.9,6.05 0.32,0.66 0.56,1.18 0.73,1.54 0.17,0.36 0.24,0.51 0.24,0.51 0,0 -0.11,-0.19 -0.28,-0.53 l -0.79,-1.55 -3,-5.94 a 0.09,0.09 0 0 1 0,-0.07 28.87,28.87 0 0 0 1.39,-14 36.83,36.83 0 0 0 -1,-4.34 30.36,30.36 0 0 0 -1.81,-4.41 28.76,28.76 0 0 0 -28.37,-15.63 29.09,29.09 0 0 0 -12.4,4.27 25.43,25.43 0 0 0 -2.78,2 14,14 0 0 0 -1.3,1.13 c -0.41,0.4 -0.85,0.77 -1.25,1.19 l -1.16,1.3 -0.58,0.65 -0.52,0.7 -1,1.42 -0.91,1.51 a 28.1,28.1 0 0 0 -3.84,13.09 28.66,28.66 0 0 0 19.54,28.4 28.81,28.81 0 0 0 10.25,1.45 33.67,33.67 0 0 0 4.72,-0.56 28.36,28.36 0 0 0 4.27,-1.24 28.91,28.91 0 0 0 11.55,-8 0.11,0.11 0 0 1 0.15,0 0.12,0.12 0 0 1 0,0.13 v 0 l -0.1,-0.14 6.83,-0.59 1.78,-0.15 z"
         style="fill:#263238;stroke-width:0.927989"
         id="path148" />
      <polygon
         points="156.65,95.62 160.38,91.88 167.58,98.28 181.72,84.68 185.18,88.42 167.05,105.48 "
         style="fill:#006a39;stroke-width:0.927989"
         id="polygon150" />
    </g>
    <g
       id="freepik--Character--inject-7"
       style="stroke-width:0.927989">
      <path
         d="M 183.36,429.33 166,445.81 c 0,0 17.16,19.59 15,23.64 l -41.9,-24.14 25.9,-29.1 z"
         style="fill:#455a64;stroke-width:0.927989"
         id="path153" />
      <g
         style="opacity:0.6;stroke-width:0.927989"
         id="g157">
        <path
           d="m 154.44,436.09 a 2,2 0 0 0 -2.35,1.18 1.91,1.91 0 0 0 1.15,2.35 2.1,2.1 0 0 0 2.49,-1.27 2,2 0 0 0 -1.47,-2.3"
           style="fill:#ffffff;stroke-width:0.927989"
           id="path155" />
      </g>
      <g
         style="opacity:0.6;stroke-width:0.927989"
         id="g161">
        <path
           d="m 139.1,445.31 2.63,-3 39,24.37 a 3.32,3.32 0 0 1 0.22,3.17 z"
           style="fill:#ffffff;stroke-width:0.927989"
           id="path159" />
      </g>
      <path
         d="m 166.77,446 c -0.13,0.19 -1.19,-0.34 -2.57,-0.32 -1.38,0.02 -2.44,0.54 -2.57,0.34 -0.13,-0.2 0.88,-1.16 2.56,-1.16 1.68,0 2.74,1 2.58,1.14 z"
         style="fill:#263238;stroke-width:0.927989"
         id="path163" />
      <path
         d="m 169.94,450.49 c -0.07,0.22 -1.15,0 -2.36,0.43 -1.21,0.43 -2,1.19 -2.16,1.06 -0.16,-0.13 0.39,-1.34 1.9,-1.84 1.51,-0.5 2.74,0.15 2.62,0.35 z"
         style="fill:#263238;stroke-width:0.927989"
         id="path165" />
      <path
         d="m 169.15,457.15 c -0.2,-0.07 0.15,-1.24 1.34,-2 1.19,-0.76 2.41,-0.62 2.39,-0.4 -0.02,0.22 -1,0.45 -1.94,1.09 -0.94,0.64 -1.57,1.41 -1.79,1.31 z"
         style="fill:#263238;stroke-width:0.927989"
         id="path167" />
      <path
         d="m 169.44,441 c -0.2,0.13 -0.94,-0.72 -2.12,-1.35 -1.18,-0.63 -2.28,-0.83 -2.28,-1.07 0,-0.24 1.3,-0.42 2.67,0.35 1.37,0.77 1.92,1.95 1.73,2.07 z"
         style="fill:#263238;stroke-width:0.927989"
         id="path169" />
      <path
         d="m 172.18,436.77 c -0.05,0.08 -0.91,-0.29 -2,-1.3 a 10.56,10.56 0 0 1 -1.73,-2 11,11 0 0 1 -0.78,-1.36 3.12,3.12 0 0 1 -0.32,-0.87 1,1 0 0 1 0.58,-1.12 1.3,1.3 0 0 1 1.16,0.1 3,3 0 0 1 0.7,0.58 8.55,8.55 0 0 1 2.11,3.67 4,4 0 0 1 0.16,2.42 c -0.13,0 -0.2,-0.91 -0.71,-2.24 a 10.3,10.3 0 0 0 -1.18,-2.18 9.58,9.58 0 0 0 -0.95,-1.1 c -0.36,-0.39 -0.73,-0.62 -1,-0.5 -0.27,0.12 -0.11,0.08 -0.1,0.26 a 2.38,2.38 0 0 0 0.23,0.64 14.5,14.5 0 0 0 0.7,1.3 13.5,13.5 0 0 0 1.5,2 c 0.97,1.05 1.7,1.59 1.63,1.7 z"
         style="fill:#263238;stroke-width:0.927989"
         id="path171" />
      <path
         d="m 171.74,436.89 a 3.93,3.93 0 0 1 0.7,-2.32 7.87,7.87 0 0 1 1.69,-2.06 7.46,7.46 0 0 1 1.31,-0.92 2,2 0 0 1 1.95,-0.21 1.12,1.12 0 0 1 0.5,1.1 3.35,3.35 0 0 1 -0.26,0.89 5.57,5.57 0 0 1 -3.07,2.94 c -1.47,0.56 -2.45,0.28 -2.42,0.2 a 19.18,19.18 0 0 0 2.18,-0.73 5.54,5.54 0 0 0 1.86,-1.51 5,5 0 0 0 0.7,-1.21 c 0.21,-0.47 0.27,-0.93 0.08,-1 a 1.37,1.37 0 0 0 -1.14,0.23 7.33,7.33 0 0 0 -1.2,0.79 8.37,8.37 0 0 0 -1.68,1.79 c -0.81,1.18 -1.07,2.06 -1.2,2.02 z"
         style="fill:#263238;stroke-width:0.927989"
         id="path173" />
      <path
         d="m 314.18,430.75 4.14,22.36 c 0,0 24.76,8.09 24.92,12.71 l -47.11,0.56 -3.48,-35.63 z"
         style="fill:#455a64;stroke-width:0.927989"
         id="path175" />
      <g
         style="opacity:0.6;stroke-width:0.927989"
         id="g179">
        <path
           d="m 300,452.42 a 2,2 0 0 0 -1.42,2.21 1.89,1.89 0 0 0 2.18,1.43 2.08,2.08 0 0 0 1.49,-2.35 2,2 0 0 0 -2.43,-1.24"
           style="fill:#ffffff;stroke-width:0.927989"
           id="path177" />
      </g>
      <g
         style="opacity:0.6;stroke-width:0.927989"
         id="g183">
        <path
           d="m 296.13,466.38 -0.74,-3.42 46.29,0.59 a 3.35,3.35 0 0 1 1.81,2.62 z"
           style="fill:#ffffff;stroke-width:0.927989"
           id="path181" />
      </g>
      <path
         d="m 319.11,452.88 c 0,0.24 -1.19,0.31 -2.37,1 -1.18,0.69 -1.82,1.7 -2,1.61 -0.18,-0.09 0.17,-1.46 1.62,-2.31 1.45,-0.85 2.81,-0.51 2.75,-0.3 z"
         style="fill:#263238;stroke-width:0.927989"
         id="path185" />
      <path
         d="m 324.12,455.11 c 0.05,0.23 -1,0.6 -1.81,1.58 -0.81,0.98 -1.08,2 -1.32,2 -0.24,0 -0.35,-1.36 0.7,-2.55 1.05,-1.19 2.43,-1.26 2.43,-1.03 z"
         style="fill:#263238;stroke-width:0.927989"
         id="path187" />
      <path
         d="m 326.84,461.24 c -0.21,0.05 -0.51,-1.14 0.13,-2.41 0.64,-1.27 1.75,-1.77 1.85,-1.57 0.1,0.2 -0.61,0.88 -1.12,1.93 -0.51,1.05 -0.62,2.03 -0.86,2.05 z"
         style="fill:#263238;stroke-width:0.927989"
         id="path189" />
      <path
         d="m 317.15,447.67 c -0.1,0.21 -1.17,-0.14 -2.51,-0.08 -1.34,0.06 -2.38,0.45 -2.5,0.24 -0.12,-0.21 0.9,-1 2.48,-1.06 1.58,-0.06 2.65,0.72 2.53,0.9 z"
         style="fill:#263238;stroke-width:0.927989"
         id="path191" />
      <path
         d="m 205.44,268.22 c -0.78,0.53 -2.56,27.36 0,33.24 l -6.51,48.35 c 0,0 -17.48,27.75 -21,31.79 -3.52,4.04 -26.34,43.4 -26.34,43.4 l 25.77,22.22 c 0,0 44.78,-58.5 52,-68.89 C 240.63,362.08 254,301 254,301 l 1.74,-30.32 z"
         style="fill:#263238;stroke-width:0.927989"
         id="path193" />
      <path
         d="m 240.63,306.9 c 0.78,1.43 35.65,55 35.65,55 0,0 5.29,28.39 6.46,40.91 1.17,12.52 9.75,44.72 9.75,44.72 l 28.05,-2.2 c 0,0 -7.58,-82.9 -12.28,-99.05 -4.7,-16.15 -17.74,-47.38 -17.74,-47.38 l -11,-29.21 -31.71,0.59 z"
         style="fill:#263238;stroke-width:0.927989"
         id="path195" />
      <path
         d="m 260.48,278.48 a 5.72,5.72 0 0 1 -0.18,0.87 l -0.6,2.46 c -0.55,2.18 -1.34,5.25 -2.3,9 -2,7.61 -4.68,18.12 -7.84,29.68 -3.16,11.56 -6.25,22 -8.6,29.49 -1.18,3.75 -2.15,6.78 -2.85,8.86 l -0.81,2.4 a 4.74,4.74 0 0 1 -0.32,0.82 5.35,5.35 0 0 1 0.22,-0.85 l 0.72,-2.43 c 0.65,-2.15 1.56,-5.18 2.69,-8.91 2.26,-7.52 5.28,-17.95 8.45,-29.51 3.17,-11.56 5.93,-22 8,-29.65 1,-3.75 1.86,-6.81 2.46,-9 l 0.69,-2.44 a 6.35,6.35 0 0 1 0.27,-0.79 z"
         style="fill:#455a64;stroke-width:0.927989"
         id="path197" />
      <path
         d="m 346.64,152 c 0,0 2.95,-2.33 3.9,-2.26 0.95,0.07 6.89,0.93 6.89,0.93 0,0 0.37,2.5 -1.33,3.32 a 12.48,12.48 0 0 1 -4.23,0.89 l -1.41,1 z"
         style="fill:#ffcaae;stroke-width:0.927989"
         id="path199" />
      <path
         d="m 269.24,160.21 46.46,36.47 23,-21.64 0.63,-4.21 a 14.67,14.67 0 0 1 1,-3.48 l 5.93,-14.11 13.89,22.52 c 0,0 -34.15,44.59 -40.15,46.15 -7.89,2.06 -47.16,-24.53 -47.16,-24.53 z"
         style="fill:#ffcaae;stroke-width:0.927989"
         id="path201" />
      <path
         d="m 346,165.67 a 12.52,12.52 0 0 1 3.09,11.5 25.34,25.34 0 0 0 -0.59,-6 25.4,25.4 0 0 0 -2.5,-5.5 z"
         style="fill:#ff9a6c;stroke-width:0.927989"
         id="path203" />
      <path
         d="m 239.18,94.67 -0.91,47.6 c -0.32,8.13 -0.75,20.16 12.12,20.08 v 0 c 11.16,-0.92 14.4,-11.37 14.69,-19 0.14,-3.59 0.26,-6.59 0.3,-7 0,0 12.21,-0.67 13.56,-12.67 0.65,-5.81 1,-17.87 1.23,-28.78 A 22.51,22.51 0 0 0 259.9,72.17 l -1.16,-0.11 c -12.58,-0.52 -19.39,10.02 -19.56,22.61 z"
         style="fill:#ffcaae;stroke-width:0.927989"
         id="path205" />
      <path
         d="m 265.41,136.43 a 29.17,29.17 0 0 1 -15.19,-6.19 c 0,0 2.94,9.16 15,9.28 z"
         style="fill:#ff935c;stroke-width:0.927989"
         id="path207" />
      <path
         d="m 260,101.09 c -0.27,0.06 -1.43,-0.89 -3.37,-1.44 -1.94,-0.55 -3.54,-0.44 -3.71,-0.64 -0.17,-0.2 0.23,-0.25 0.93,-0.31 a 8.51,8.51 0 0 1 3,0.34 7.75,7.75 0 0 1 2.63,1.31 c 0.52,0.42 0.64,0.71 0.52,0.74 z"
         style="fill:#263238;stroke-width:0.927989"
         id="path209" />
      <path
         d="m 257.62,103.46 a 1.64,1.64 0 0 1 -1.73,1.48 1.56,1.56 0 0 1 -1.53,-1.63 1.64,1.64 0 0 1 1.73,-1.48 1.56,1.56 0 0 1 1.53,1.63 z"
         style="fill:#263238;stroke-width:0.927989"
         id="path211" />
      <path
         d="m 264.46,113.53 a 12,12 0 0 1 3.05,-0.24 c 0.48,0 0.94,-0.05 1.05,-0.37 a 2.42,2.42 0 0 0 -0.18,-1.43 c -0.33,-1.18 -0.67,-2.42 -1,-3.73 -1.43,-5.31 -2.41,-9.65 -2.2,-9.71 0.21,-0.06 1.55,4.21 3,9.51 l 1,3.75 a 2.79,2.79 0 0 1 0.06,1.88 1.21,1.21 0 0 1 -0.85,0.61 3.26,3.26 0 0 1 -0.81,0 12.06,12.06 0 0 1 -3.12,-0.27 z"
         style="fill:#263238;stroke-width:0.927989"
         id="path213" />
      <path
         d="m 259.13,91.77 c -0.21,0.44 -1.81,0.06 -3.75,0.11 -1.94,0.05 -3.53,0.43 -3.75,0 -0.09,-0.21 0.22,-0.61 0.89,-1 a 6.14,6.14 0 0 1 2.85,-0.72 6,6 0 0 1 2.86,0.64 c 0.67,0.36 0.99,0.76 0.9,0.97 z"
         style="fill:#263238;stroke-width:0.927989"
         id="path215" />
      <path
         d="m 278.18,96 c -0.23,0.35 -1.79,-0.09 -3.69,-0.2 -1.9,-0.11 -3.5,0.09 -3.69,-0.3 -0.08,-0.18 0.24,-0.5 0.91,-0.77 a 6.64,6.64 0 0 1 2.84,-0.39 7.05,7.05 0 0 1 2.78,0.76 c 0.67,0.38 0.94,0.74 0.85,0.9 z"
         style="fill:#263238;stroke-width:0.927989"
         id="path217" />
      <path
         d="m 239.27,103.84 c -0.21,-0.11 -8.5,-3.21 -8.86,5.45 -0.36,8.66 8.41,7.24 8.44,7 0.03,-0.24 0.42,-12.45 0.42,-12.45 z"
         style="fill:#ffcaae;stroke-width:0.927989"
         id="path219" />
      <path
         d="m 236.34,112.89 c 0,0 -0.16,0.1 -0.42,0.21 a 1.52,1.52 0 0 1 -1.13,0 c -0.9,-0.37 -1.61,-1.86 -1.59,-3.42 a 5,5 0 0 1 0.51,-2.14 1.73,1.73 0 0 1 1.19,-1.11 0.76,0.76 0 0 1 0.87,0.45 c 0.11,0.24 0,0.41 0.09,0.43 0.09,0.02 0.19,-0.14 0.14,-0.5 a 0.94,0.94 0 0 0 -0.32,-0.55 1.14,1.14 0 0 0 -0.83,-0.26 2.13,2.13 0 0 0 -1.63,1.28 5.13,5.13 0 0 0 -0.62,2.39 c 0,1.75 0.81,3.42 2,3.84 a 1.6,1.6 0 0 0 1.39,-0.18 c 0.32,-0.23 0.38,-0.42 0.35,-0.44 z"
         style="fill:#ff935c;stroke-width:0.927989"
         id="path221" />
      <path
         d="m 264.62,119.28 c 0,-0.23 -1.66,-0.3 -3.13,-1.49 a 9,9 0 0 1 -1.64,-1.8 c -0.39,-0.52 -0.66,-0.84 -0.74,-0.79 -0.08,0.05 0.05,0.43 0.34,1 a 6.06,6.06 0 0 0 1.63,2.08 4.89,4.89 0 0 0 2.44,1 c 0.67,0.16 1.09,0.07 1.1,0 z"
         style="fill:#263238;stroke-width:0.927989"
         id="path223" />
      <path
         d="m 277.8,100.13 c -0.2,0.19 -1.68,0 -3.63,0.54 -1.95,0.54 -3.26,1.44 -3.5,1.37 -0.24,-0.07 0.07,-0.32 0.64,-0.73 a 8.71,8.71 0 0 1 2.77,-1.25 7.72,7.72 0 0 1 2.92,-0.27 c 0.65,0.08 0.9,0.21 0.8,0.34 z"
         style="fill:#263238;stroke-width:0.927989"
         id="path225" />
      <path
         d="m 275.2,104.37 a 1.64,1.64 0 0 1 -1.73,1.48 1.56,1.56 0 0 1 -1.53,-1.63 1.64,1.64 0 0 1 1.73,-1.48 1.56,1.56 0 0 1 1.53,1.63 z"
         style="fill:#263238;stroke-width:0.927989"
         id="path227" />
      <path
         d="m 296.76,84.62 a 2,2 0 0 0 -0.89,-1.17 6.06,6.06 0 0 0 -3.06,-0.58 17.38,17.38 0 0 1 -7.48,-2.09 8.61,8.61 0 0 0 2.26,-1.49 5.18,5.18 0 0 0 1.62,-5.1 1.14,1.14 0 0 0 -0.62,-0.8 c -0.53,-0.18 -1,0.33 -1.4,0.74 a 4.44,4.44 0 0 1 -4.19,1.66 7.37,7.37 0 0 1 -3.1,-1 l -0.1,-0.12 -1.22,-1.3 v 0 c -3,-3.15 -5.61,-5.35 -8.32,-6.53 -4,-1.72 -10.67,-2.56 -14.89,-1.57 -4.22,0.99 -8.06,4.28 -8.76,8.56 -2.3,-2 -5.82,-2.13 -8.71,-1.06 h -0.07 c -3.22,1 -5.12,4.37 -6.14,7.59 -0.06,0.17 -0.11,0.35 -0.16,0.53 a 12.71,12.71 0 0 1 -4.4,4.07 c -0.31,0.17 -0.67,0.38 -0.72,0.74 -0.05,0.36 0.24,0.65 0.52,0.86 a 6.33,6.33 0 0 0 2.55,1.14 14.73,14.73 0 0 1 -1.11,2.21 c -0.38,0.6 -0.83,1.32 -0.53,2 a 1.36,1.36 0 0 0 1.39,0.65 4,4 0 0 0 1.5,-0.63 l -1.13,2.52 a 7.55,7.55 0 0 0 3.47,-0.14 81.78,81.78 0 0 0 2,9 c 1.33,0 2.6,-0.24 3.4,0.52 1.09,1 1.54,2.93 3.41,2.26 1,-0.34 1.87,-2.29 2.21,-3.25 a 46.87,46.87 0 0 0 2.5,-19.84 15,15 0 0 1 4.75,-3.24 l -0.15,0.12 c 3.4,-1.07 7.23,-2.12 10.38,-0.46 2.44,1.29 3.83,3.9 5.62,6 A 17.84,17.84 0 0 0 280,91.93 c 0.38,3.65 -0.14,8.24 0,11.64 l 3.28,-5.38 v 0 A 12.45,12.45 0 0 0 283.9,97 l 0.06,-0.12 v 0 c 0.32,-0.64 0.62,-1.28 1,-1.91 v 0 a 2.12,2.12 0 0 0 3.17,-2.74 4.79,4.79 0 0 0 -1,-1.06 3.35,3.35 0 0 0 3.17,0.91 2.64,2.64 0 0 0 1.93,-2.55 2.27,2.27 0 0 0 -1.23,-1.78 7.43,7.43 0 0 0 4.31,-0.83 c 0.85,-0.46 1.69,-1.23 1.45,-2.3 z"
         style="fill:#263238;stroke-width:0.927989"
         id="path229" />
      <path
         d="m 250.31,75.3 a 9.8,9.8 0 0 0 -1.24,1.07 8.63,8.63 0 0 0 -1.95,3.95 14.75,14.75 0 0 0 -0.39,3.05 c 0,1.11 0,2.3 0.07,3.55 a 32.58,32.58 0 0 1 0,4 13.7,13.7 0 0 1 -0.33,2.07 4.32,4.32 0 0 1 -0.9,2 1.82,1.82 0 0 1 -1.72,0.53 2.72,2.72 0 0 1 -1.5,-0.91 6.16,6.16 0 0 1 -1.08,-3.09 h 0.25 A 10,10 0 0 1 240,94 a 3.6,3.6 0 0 1 -2.38,1.21 2.24,2.24 0 0 1 -1.23,-0.25 1.92,1.92 0 0 1 -0.82,-0.85 2.06,2.06 0 0 1 -0.23,-1.07 1.51,1.51 0 0 1 0.41,-0.93 l 0.13,0.12 a 7.94,7.94 0 0 1 -2.64,1.87 7.82,7.82 0 0 1 -0.81,0.29 1.09,1.09 0 0 1 -0.29,0.06 l 0.27,-0.11 c 0.19,-0.07 0.45,-0.17 0.79,-0.33 a 7.79,7.79 0 0 0 2.55,-1.9 l 0.12,0.12 a 1.55,1.55 0 0 0 -0.12,1.79 1.73,1.73 0 0 0 0.74,0.75 2.21,2.21 0 0 0 1.12,0.22 3.35,3.35 0 0 0 2.2,-1.16 9.92,9.92 0 0 0 1.48,-2.43 l 0.18,-0.38 0.07,0.42 a 6,6 0 0 0 1,2.95 2.39,2.39 0 0 0 1.35,0.81 1.52,1.52 0 0 0 1.45,-0.44 4.14,4.14 0 0 0 0.84,-1.87 14.5,14.5 0 0 0 0.32,-2 32.19,32.19 0 0 0 0,-3.92 c 0,-1.25 -0.09,-2.45 0,-3.57 a 15.15,15.15 0 0 1 0.43,-3.09 8.5,8.5 0 0 1 2.07,-4 5,5 0 0 1 1.31,-1.01 z"
         style="fill:#455a64;stroke-width:0.927989"
         id="path231" />
      <path
         d="m 287.23,88 -0.1,0.08 -0.3,0.21 c -0.14,0.09 -0.31,0.2 -0.52,0.31 a 6.36,6.36 0 0 1 -0.74,0.37 10.74,10.74 0 0 1 -5.18,0.79 13.71,13.71 0 0 1 -7.19,-2.88 23.64,23.64 0 0 1 -6.05,-7.36 c -0.84,-1.48 -1.51,-3 -2.26,-4.4 a 16,16 0 0 0 -2.59,-3.73 8.3,8.3 0 0 0 -3.42,-2.2 5.81,5.81 0 0 0 -1.82,-0.26 6.49,6.49 0 0 0 -1.68,0.28 7,7 0 0 0 -4,3.17 9.71,9.71 0 0 0 -0.67,1.78 0.56,0.56 0 0 1 0,-0.12 l 0.06,-0.37 a 6.14,6.14 0 0 1 0.5,-1.35 6.86,6.86 0 0 1 1.39,-1.79 7.11,7.11 0 0 1 2.6,-1.51 6.47,6.47 0 0 1 1.74,-0.31 6,6 0 0 1 2,0.29 8.35,8.35 0 0 1 3.53,2.24 15.78,15.78 0 0 1 2.6,3.76 c 0.76,1.41 1.43,2.92 2.26,4.39 a 23.67,23.67 0 0 0 6,7.29 13.57,13.57 0 0 0 7.06,2.89 10.92,10.92 0 0 0 5.11,-0.69 c 1.1,-0.48 1.65,-0.88 1.67,-0.88 z"
         style="fill:#455a64;stroke-width:0.927989"
         id="path233" />
      <path
         d="M 288.47,82.75 A 2.27,2.27 0 0 1 288,83 a 9.15,9.15 0 0 1 -1.3,0.61 12.21,12.21 0 0 1 -2,0.61 12.84,12.84 0 0 1 -5.19,0 12.47,12.47 0 0 1 -2.05,-0.59 10.15,10.15 0 0 1 -1.31,-0.6 2.66,2.66 0 0 1 -0.44,-0.28 c 0,0 0.68,0.31 1.81,0.69 a 13.55,13.55 0 0 0 2,0.52 14.51,14.51 0 0 0 2.55,0.22 15.35,15.35 0 0 0 2.55,-0.24 15.82,15.82 0 0 0 2,-0.54 c 1.17,-0.33 1.82,-0.7 1.85,-0.65 z"
         style="fill:#455a64;stroke-width:0.927989"
         id="path235" />
      <path
         d="m 255.4,143.61 12.37,5 c 3,0.87 8.82,5.8 12.29,9.13 l 14.4,19.2 -22,26.81 z"
         style="fill:#455a64;stroke-width:0.927989"
         id="path237" />
      <path
         d="m 238.14,134.55 -2,3.14 c 0,0 -29.08,7.58 -31.5,13.41 -3.38,8.18 1.06,33.59 1.06,33.59 l 6.14,54.74 -8.4,30.29 77,1.32 c 0,0 -4.67,-79.42 -5.76,-87.82 -1.09,-8.4 -8.42,-36.91 -8.42,-36.91 z"
         style="fill:#455a64;stroke-width:0.927989"
         id="path239" />
      <path
         d="m 273.41,167.72 c 0,0 0,0.09 0,0.26 0,0.17 0.06,0.44 0.1,0.75 q 0.1,1.05 0.3,2.88 c 0.26,2.5 0.59,6.13 1,10.61 0.76,9 1.63,21.36 2.49,35.06 0.86,13.7 1.66,26.1 2.33,35.07 0.34,4.46 0.61,8.07 0.8,10.62 0.09,1.23 0.16,2.19 0.21,2.89 0,0.31 0,0.56 0,0.76 a 1.54,1.54 0 0 1 0,0.25 0.7,0.7 0 0 1 -0.05,-0.25 c 0,-0.2 -0.06,-0.44 -0.1,-0.75 q -0.1,-1 -0.3,-2.88 c -0.26,-2.5 -0.59,-6.13 -1,-10.61 -0.76,-9 -1.63,-21.36 -2.48,-35.07 -0.85,-13.71 -1.67,-26.09 -2.34,-35.06 -0.34,-4.46 -0.61,-8.07 -0.8,-10.62 -0.09,-1.23 -0.16,-2.19 -0.21,-2.89 0,-0.31 0,-0.56 0,-0.76 a 1.11,1.11 0 0 1 0.05,-0.26 z"
         style="fill:#263238;stroke-width:0.927989"
         id="path241" />
      <path
         d="m 207.16,256.28 7.76,2.94 4.31,-13.56 c 0,0 7.4,5.67 12.58,4.93 5.18,-0.74 12.57,-4.93 12.57,-4.93 l 16.77,3.12 18.36,6.22 -1.35,-22.69 -48.57,-2.46 -14.67,1.72 z"
         style="opacity:0.3;stroke-width:0.927989"
         id="path243" />
      <path
         d="m 160.46,275.53 12.52,-6 c 1.16,-3.87 2.33,-7.75 3.61,-12 l 15,6.67 5.05,-15.68 15,6.51 4.88,-15.77 c 4.33,2 8,3.92 11.84,5.22 a 10.06,10.06 0 0 0 6.46,0 c 5.41,-2.18 10.59,-4.95 16,-7.57 0.78,1.49 1.27,2.36 1.7,3.26 2.57,5.39 2.75,5.47 8.25,2.94 5.86,-2.69 11.73,-5.36 17.52,-8.17 2.46,-1.2 4.34,-1 6.84,0.42 19.1,10.73 38.31,11.32 56.77,-1.18 17.48,-11.85 25.13,-28.93 22.55,-49.75 -2.58,-20.82 -14.38,-35.14 -33.89,-42.42 -30.76,-11.47 -64.16,8.43 -69.28,40.9 -0.43,2.68 -1.41,4.11 -3.86,5.13 -5,2.09 -9.91,4.45 -14.84,6.72 -8.28,3.8 -8.27,3.8 -5.64,12.59 -1.66,0.89 -3,1.73 -4.48,2.39 -19.17,8.77 -70.24,31.56 -87,39 l -5.83,19.87 z m 191.21,-89 a 21.55,21.55 0 1 1 -12.28,-27.83 21.42,21.42 0 0 1 12.28,27.86 z"
         style="fill:#006a39;stroke-width:0.927989"
         id="path245" />
      <path
         d="m 239.17,221.7 -86.47,37.49 a 2.86,2.86 0 0 1 -3.76,-1.49 v 0 a 2.86,2.86 0 0 1 1.49,-3.76 l 86.46,-37.48 a 2.85,2.85 0 0 1 3.76,1.48 v 0 a 2.85,2.85 0 0 1 -1.48,3.76 z"
         style="opacity:0.3;stroke-width:0.927989"
         id="path247" />
      <path
         d="m 243.91,222 c 0,0 -0.08,0.06 -0.25,0.15 l -0.77,0.37 -3,1.39 -11,5 c -9.27,4.23 -22.07,10 -36.26,16.39 -14.19,6.39 -27.09,12 -36.48,15.9 -4.69,2 -8.51,3.55 -11.15,4.61 l -3,1.2 -0.8,0.31 -0.27,0.08 c 0,0 0.08,-0.05 0.25,-0.13 l 0.78,-0.35 3,-1.3 11.09,-4.75 c 9.35,-4 22.22,-9.71 36.41,-16 l 36.32,-16.26 11,-4.88 3,-1.29 0.79,-0.33 z"
         style="fill:#263238;stroke-width:0.927989"
         id="path249" />
      <path
         d="m 253.42,241 c -0.13,0.06 -4.07,-7.88 -8.81,-17.74 -4.74,-9.86 -8.46,-17.9 -8.34,-18 0.12,-0.1 4.08,7.87 8.81,17.74 4.73,9.87 8.47,18 8.34,18 z"
         style="fill:#263238;stroke-width:0.927989"
         id="path251" />
      <path
         d="m 362,191.18 c 0,0 0,-0.27 -0.06,-0.79 -0.06,-0.52 -0.08,-1.31 -0.15,-2.31 q 0,-0.77 -0.09,-1.71 c -0.07,-0.62 -0.2,-1.3 -0.31,-2 -0.11,-0.7 -0.24,-1.53 -0.37,-2.37 a 25.47,25.47 0 0 0 -0.64,-2.66 46.24,46.24 0 0 0 -5.39,-12.93 48.19,48.19 0 0 0 -12.34,-13.77 l -2.09,-1.56 c -0.74,-0.49 -1.52,-0.93 -2.28,-1.4 -0.76,-0.47 -1.53,-1 -2.37,-1.37 l -2.52,-1.21 -1.28,-0.61 -1.34,-0.49 -2.77,-1 c -0.93,-0.31 -1.9,-0.51 -2.86,-0.77 a 23.91,23.91 0 0 0 -2.93,-0.66 44.05,44.05 0 0 0 -6.13,-0.71 c -1.05,0 -2.1,-0.14 -3.16,-0.13 l -3.21,0.17 c -0.54,0 -1.08,0 -1.62,0.1 l -1.62,0.25 c -1.08,0.18 -2.17,0.31 -3.26,0.53 a 51.07,51.07 0 0 0 -6.46,1.9 l -1.61,0.59 c -0.27,0.1 -0.54,0.19 -0.8,0.3 l -0.78,0.37 -3.13,1.52 c -1,0.55 -2,1.2 -3,1.8 -0.5,0.31 -1,0.59 -1.5,0.94 l -1.42,1.07 a 53.71,53.71 0 0 0 -5.5,4.67 l -2.46,2.72 -0.62,0.68 -0.56,0.73 -1.11,1.49 -1.14,1.44 -1,1.59 -1,1.61 -0.49,0.8 c -0.15,0.28 -0.28,0.57 -0.42,0.85 l -1.64,3.42 c -0.44,1.19 -0.88,2.38 -1.32,3.59 a 48,48 0 0 0 0,30.57 c 0.44,1.2 0.88,2.4 1.31,3.59 0.43,1.19 1.1,2.28 1.65,3.42 l 0.41,0.85 0.49,0.8 1,1.61 1,1.59 1.12,1.49 1.11,1.49 0.55,0.73 0.62,0.69 c 0.83,0.9 1.65,1.81 2.47,2.71 a 53.6,53.6 0 0 0 5.49,4.67 l 1.43,1.07 c 0.47,0.36 1,0.63 1.5,1 1,0.6 2,1.24 3,1.8 l 3.13,1.51 0.78,0.37 0.8,0.31 1.61,0.59 a 51,51 0 0 0 6.46,1.89 c 1.09,0.23 2.19,0.35 3.26,0.53 l 1.62,0.25 c 0.54,0.07 1.08,0.07 1.62,0.1 l 3.21,0.17 c 1.06,0 2.11,-0.09 3.16,-0.12 a 45.43,45.43 0 0 0 6.13,-0.71 26,26 0 0 0 2.93,-0.67 c 1,-0.26 1.93,-0.46 2.86,-0.76 l 2.73,-1 1.35,-0.49 1.28,-0.61 2.51,-1.21 c 0.84,-0.38 1.59,-0.92 2.37,-1.36 0.78,-0.44 1.54,-0.92 2.28,-1.4 l 2.1,-1.57 A 48.36,48.36 0 0 0 355,216 a 46.24,46.24 0 0 0 5.33,-13 25.93,25.93 0 0 0 0.64,-2.65 c 0.13,-0.85 0.25,-1.64 0.37,-2.38 0.12,-0.74 0.24,-1.41 0.31,-2 0.07,-0.59 0.06,-1.19 0.09,-1.7 0.07,-1 0.11,-1.78 0.15,-2.31 0.04,-0.53 0.06,-0.79 0.06,-0.79 0,0 0,0.26 0,0.79 0,0.53 -0.05,1.31 -0.09,2.31 0,0.52 -0.05,1.09 -0.07,1.71 -0.02,0.62 -0.19,1.31 -0.29,2 -0.1,0.69 -0.22,1.53 -0.35,2.38 a 25.21,25.21 0 0 1 -0.61,2.67 46.47,46.47 0 0 1 -5.33,13 48.59,48.59 0 0 1 -12.38,13.97 l -2.11,1.58 c -0.74,0.49 -1.52,0.94 -2.29,1.42 -0.77,0.48 -1.54,1 -2.38,1.38 l -2.54,1.23 -1.29,0.61 -1.35,0.5 -2.75,1 c -0.94,0.32 -1.91,0.52 -2.88,0.78 a 24.44,24.44 0 0 1 -3,0.68 46.32,46.32 0 0 1 -6.19,0.73 c -1,0 -2.11,0.15 -3.18,0.13 l -3.24,-0.16 c -0.55,0 -1.09,0 -1.64,-0.1 l -1.63,-0.25 c -1.09,-0.18 -2.2,-0.3 -3.29,-0.53 a 51.58,51.58 0 0 1 -6.53,-1.9 l -1.63,-0.6 c -0.27,-0.1 -0.55,-0.19 -0.81,-0.3 l -0.79,-0.38 -3.16,-1.52 c -1,-0.56 -2,-1.21 -3.05,-1.82 -0.51,-0.32 -1,-0.59 -1.52,-0.95 l -1.44,-1.08 a 53.61,53.61 0 0 1 -5.56,-4.72 l -2.49,-2.73 -0.63,-0.69 -0.56,-0.75 -1.12,-1.5 -1.13,-1.5 -1,-1.61 -1,-1.63 -0.5,-0.81 -0.42,-0.86 -1.66,-3.45 c -0.44,-1.2 -0.89,-2.41 -1.33,-3.63 a 48.44,48.44 0 0 1 0,-30.9 c 0.45,-1.21 0.89,-2.42 1.33,-3.62 0.44,-1.2 1.11,-2.31 1.67,-3.46 0.14,-0.28 0.27,-0.57 0.42,-0.85 l 0.49,-0.82 1,-1.62 1,-1.61 1.13,-1.5 1.12,-1.5 0.57,-0.75 0.62,-0.69 c 0.84,-0.91 1.67,-1.83 2.49,-2.73 a 56,56 0 0 1 5.56,-4.72 l 1.44,-1.08 c 0.48,-0.36 1,-0.63 1.52,-1 1,-0.61 2,-1.26 3.05,-1.82 l 3.16,-1.52 0.79,-0.38 c 0.26,-0.11 0.54,-0.2 0.81,-0.3 l 1.63,-0.59 a 51.49,51.49 0 0 1 6.52,-1.91 c 1.1,-0.22 2.21,-0.35 3.3,-0.53 l 1.63,-0.24 c 0.54,-0.07 1.09,-0.07 1.64,-0.11 l 3.23,-0.16 c 1.07,0 2.14,0.09 3.19,0.13 a 46.52,46.52 0 0 1 6.19,0.73 26.49,26.49 0 0 1 3,0.68 c 1,0.27 1.94,0.47 2.88,0.78 l 2.75,1 1.35,0.5 1.29,0.61 2.54,1.23 c 0.84,0.39 1.59,0.93 2.38,1.39 0.79,0.46 1.55,0.92 2.29,1.41 l 2.11,1.59 a 48.38,48.38 0 0 1 12.36,13.91 46.23,46.23 0 0 1 5.34,13 26.39,26.39 0 0 1 0.61,2.67 c 0.13,0.85 0.24,1.65 0.35,2.39 0.11,0.74 0.23,1.41 0.29,2 0.06,0.59 0.05,1.2 0.07,1.71 0,1 0.07,1.78 0.09,2.32 0.02,0.54 0.06,0.97 0.06,0.97 z"
         style="fill:#263238;stroke-width:0.927989"
         id="path253" />
      <path
         d="m 355.29,178.8 a 1.69,1.69 0 0 1 -0.05,-0.39 l -0.08,-1.15 q 0,-0.37 -0.06,-0.84 c 0,-0.31 -0.1,-0.64 -0.16,-1 a 16.62,16.62 0 0 0 -0.51,-2.48 23,23 0 0 0 -2.68,-6.39 24.15,24.15 0 0 0 -31.88,-8.83 23.54,23.54 0 0 0 -2.93,1.89 26.6,26.6 0 0 0 -2.71,2.3 26,26 0 0 0 -2.34,2.77 22.94,22.94 0 0 0 -3.42,6.59 23.73,23.73 0 0 0 0,15.08 23.11,23.11 0 0 0 3.41,6.58 27.38,27.38 0 0 0 2.35,2.78 26.6,26.6 0 0 0 2.71,2.3 24.74,24.74 0 0 0 2.93,1.89 23.26,23.26 0 0 0 3.12,1.37 24,24 0 0 0 12.56,1.05 24.08,24.08 0 0 0 16.2,-11.25 23,23 0 0 0 2.68,-6.39 16.62,16.62 0 0 0 0.51,-2.48 c 0.06,-0.37 0.13,-0.7 0.16,-1 l 0.06,-0.84 0.08,-1.15 a 1.69,1.69 0 0 1 0.05,-0.39 1.91,1.91 0 0 1 0,0.39 c 0,0.29 0,0.67 0,1.15 0,0.26 0,0.54 0,0.85 0,0.31 -0.08,0.65 -0.13,1 a 16.63,16.63 0 0 1 -0.47,2.51 22.71,22.71 0 0 1 -2.63,6.49 24.38,24.38 0 0 1 -16.37,11.53 24.48,24.48 0 0 1 -12.81,-1 25.34,25.34 0 0 1 -3.18,-1.39 24.55,24.55 0 0 1 -3,-1.92 27.78,27.78 0 0 1 -2.77,-2.35 27.23,27.23 0 0 1 -2.4,-2.82 23.78,23.78 0 0 1 -3.53,-6.76 24.19,24.19 0 0 1 0,-15.41 23.86,23.86 0 0 1 3.49,-6.72 28.45,28.45 0 0 1 2.4,-2.83 27.67,27.67 0 0 1 2.77,-2.34 24.55,24.55 0 0 1 3,-1.92 25.34,25.34 0 0 1 3.18,-1.39 24.48,24.48 0 0 1 12.81,-1 24.3,24.3 0 0 1 16.35,11.5 22.71,22.71 0 0 1 2.63,6.49 16.63,16.63 0 0 1 0.47,2.51 c 0,0.37 0.11,0.71 0.13,1 0.02,0.29 0,0.59 0,0.85 0,0.48 0,0.86 0,1.15 a 1.91,1.91 0 0 1 0.06,0.41 z"
         style="fill:#263238;stroke-width:0.927989"
         id="path255" />
      <path
         d="m 290.52,143.84 v 94.28 a 57,57 0 0 0 13.48,4.47 l -1,-102.88 a 48.54,48.54 0 0 0 -12.48,4.13 z"
         style="opacity:0.3;fill:#ffffff;stroke-width:0.927989"
         id="path257" />
      <path
         d="m 283.68,234.66 c -0.15,0 -0.26,-19.36 -0.26,-43.24 0,-23.88 0.11,-43.24 0.26,-43.24 0.15,0 0.26,19.36 0.26,43.24 0,23.88 -0.12,43.24 -0.26,43.24 z"
         style="fill:#ffffff;stroke-width:0.927989"
         id="path259" />
      <path
         d="m 273.37,158.33 a 7.5,7.5 0 0 1 -0.75,1.19 c -0.52,0.74 -1.24,1.84 -2.07,3.23 a 53.93,53.93 0 0 0 -2.68,5 60.77,60.77 0 0 0 -2.58,6.44 62.67,62.67 0 0 0 -1.75,6.72 c -0.39,2.1 -0.66,4 -0.8,5.61 -0.14,1.61 -0.23,2.92 -0.25,3.83 a 6.85,6.85 0 0 1 -0.1,1.4 8,8 0 0 1 -0.1,-1.41 c 0,-0.9 0,-2.22 0.08,-3.85 a 52.42,52.42 0 0 1 0.7,-5.67 51.72,51.72 0 0 1 4.36,-13.28 53.21,53.21 0 0 1 2.8,-5 c 0.89,-1.37 1.65,-2.44 2.22,-3.15 a 7.69,7.69 0 0 1 0.92,-1.06 z"
         style="fill:#ffffff;stroke-width:0.927989"
         id="path261" />
      <path
         d="m 258.68,191.15 a 96.2,96.2 0 0 1 -8.88,4.53 95.27,95.27 0 0 1 -9.11,4.07 94.46,94.46 0 0 1 8.88,-4.54 96.57,96.57 0 0 1 9.11,-4.06 z"
         style="fill:#ffffff;stroke-width:0.927989"
         id="path263" />
      <path
         d="m 232.81,212.31 c 0,0 -0.06,0.05 -0.2,0.13 l -0.6,0.31 -2.36,1.17 c -2.05,1 -5,2.44 -8.73,4.18 -7.38,3.49 -17.64,8.21 -29,13.25 -11.36,5.04 -21.8,9.43 -29.36,12.54 -3.78,1.56 -6.84,2.8 -9,3.64 l -2.45,0.95 -0.64,0.24 -0.22,0.06 c 0,0 0.06,-0.05 0.2,-0.11 l 0.62,-0.29 2.42,-1 8.9,-3.79 c 7.52,-3.19 17.89,-7.64 29.29,-12.67 11.4,-5.03 21.67,-9.71 29.1,-13.11 l 8.79,-4 2.4,-1.08 0.63,-0.27 z"
         style="fill:#ffffff;stroke-width:0.927989"
         id="path265" />
      <path
         d="m 331.89,152.47 c 0,0.1 -1.73,-0.25 -4.51,-0.15 a 23.52,23.52 0 0 0 -18.41,9.9 c -1.62,2.26 -2.27,3.89 -2.36,3.84 a 4.76,4.76 0 0 1 0.43,-1.14 19.16,19.16 0 0 1 1.63,-2.91 22.64,22.64 0 0 1 18.7,-10.01 20.86,20.86 0 0 1 3.33,0.24 4.91,4.91 0 0 1 1.19,0.23 z"
         style="fill:#ffffff;stroke-width:0.927989"
         id="path267" />
      <path
         d="m 339.56,147.29 a 6.83,6.83 0 0 1 -1.24,-0.56 c -0.77,-0.4 -1.91,-0.93 -3.34,-1.55 -1.43,-0.62 -3.16,-1.25 -5.11,-1.87 a 57,57 0 0 0 -6.49,-1.53 54.85,54.85 0 0 0 -6.63,-0.68 51.9,51.9 0 0 0 -5.44,0.1 c -1.55,0.11 -2.81,0.24 -3.67,0.36 a 6.12,6.12 0 0 1 -1.35,0.13 6.83,6.83 0 0 1 1.32,-0.33 c 0.86,-0.18 2.11,-0.37 3.66,-0.53 a 45.87,45.87 0 0 1 5.5,-0.21 53.72,53.72 0 0 1 6.7,0.64 52.69,52.69 0 0 1 6.54,1.59 45.11,45.11 0 0 1 5.12,2 c 1.42,0.66 2.54,1.25 3.29,1.7 a 7.07,7.07 0 0 1 1.14,0.74 z"
         style="fill:#ffffff;stroke-width:0.927989"
         id="path269" />
      <polygon
         points="215.6,219.51 219.02,220.21 222.43,202.95 226.45,202.79 228.46,180.33 224.14,198.21 219.75,197.23 "
         style="opacity:0.3;stroke-width:0.927989"
         id="polygon271" />
      <path
         d="m 254.23,227.11 c 0,0 6,-4.36 8,-5.09 2,-0.73 9,-2 11.45,-3.71 a 1.81,1.81 0 0 1 0.34,3.09 20.33,20.33 0 0 1 -7,4.38 c -1.76,0.52 -1.2,1.79 0.06,2.23 1.26,0.44 10.25,2 10.25,2 0,0 10.45,0.23 11.31,1.29 a 1.83,1.83 0 0 1 -0.71,2.78 c -0.62,0.22 -9.59,0.82 -9.59,0.82 l -4.61,-0.55 c 0,0 14.33,2.65 15.15,3.85 a 1.58,1.58 0 0 1 -0.63,2.47 c -0.73,0.44 -7.05,-0.79 -7.05,-0.79 l -8.61,-1.07 15.67,4.49 c 0,0 1.42,0.61 1.12,1.79 -0.3,1.18 -2.24,1.43 -2.24,1.43 l -16.57,-3.22 c 0,0 8.13,5.7 8.43,6.4 0.38,1 -1.29,1.9 -1.93,1.49 -0.64,-0.41 -11,-4.87 -11,-4.87 l -11.89,-5.41 -7.87,0.09 3.42,-14.58 z"
         style="fill:#ffcaae;stroke-width:0.927989"
         id="path273" />
      <path
         d="m 218.61,241.41 33.79,-0.5 -0.65,-14.07 -36.15,-7.33 5.21,-26.57 -24.65,-5.69 a 249.89,249.89 0 0 0 -5.71,38.24 c 0,0 -1.69,10.65 10.37,13.61 a 109.52,109.52 0 0 0 17.79,2.31 z"
         style="fill:#ffcaae;stroke-width:0.927989"
         id="path275" />
      <path
         d="m 190.14,190.61 34,7.6 c 0,0 5.94,-22.14 6.14,-28.28 0.2,-6.14 -8.21,-25.57 -20.07,-21.64 0,0 -3.58,-0.72 -6.85,4.07 -1.31,1.93 -13.22,38.25 -13.22,38.25 z"
         style="fill:#455a64;stroke-width:0.927989"
         id="path277" />
      <path
         d="m 228.8,166.74 a 18.85,18.85 0 0 0 -0.37,-4.94 22,22 0 0 0 -1.84,-5 12.65,12.65 0 0 0 -4,-5.09 14.08,14.08 0 0 0 -6,-2.37 27.64,27.64 0 0 0 -5.37,-0.25 19.85,19.85 0 0 0 -3.6,0.45 c -0.84,0.19 -1.28,0.37 -1.3,0.33 -0.02,-0.04 0.1,-0.08 0.31,-0.17 a 6.5,6.5 0 0 1 0.94,-0.36 17,17 0 0 1 3.62,-0.62 25.79,25.79 0 0 1 5.47,0.15 14.22,14.22 0 0 1 6.25,2.42 13,13 0 0 1 4.09,5.3 21,21 0 0 1 1.76,5.17 13.69,13.69 0 0 1 0.24,3.68 8.71,8.71 0 0 1 -0.13,1 c -0.02,0.18 -0.05,0.3 -0.07,0.3 z"
         style="fill:#263238;stroke-width:0.927989"
         id="path279" />
      <path
         d="m 228.8,177.75 c 0,0 0,0.14 -0.05,0.41 -0.05,0.27 -0.13,0.69 -0.22,1.15 -0.22,1.07 -0.52,2.51 -0.9,4.29 -0.82,3.72 -1.95,8.81 -3.25,14.67 v 0.24 h -0.25 l -6.81,-1.51 -19.24,-4.38 -5.82,-1.38 -1.57,-0.4 a 2.41,2.41 0 0 1 -0.55,-0.18 2.39,2.39 0 0 1 0.57,0.07 l 1.6,0.31 5.85,1.22 19.28,4.24 6.75,1.51 -0.3,0.19 3.43,-14.62 c 0.43,-1.76 0.79,-3.2 1.05,-4.26 l 0.3,-1.13 a 1.71,1.71 0 0 1 0.13,-0.44 z"
         style="fill:#263238;stroke-width:0.927989"
         id="path281" />
      <path
         d="m 362.4,175 a 2.1,2.1 0 0 0 2.08,-0.58 c 1.1,-1 2.93,-3.5 2.14,-4.45 a 5.84,5.84 0 0 0 -2.81,-1.34 c 0,0 1.46,-1.84 0.83,-3.19 a 2.07,2.07 0 0 0 -2.71,-1.14 4.33,4.33 0 0 0 0.05,-3.56 2.34,2.34 0 0 0 -1.26,-1.34 l -1.74,-0.76 c 0,0 1.55,-2.32 -0.22,-4.25 a 4.46,4.46 0 0 0 -1.36,-1 5.73,5.73 0 0 0 -6.77,1 v 0 c 1.4,1.39 3,2.94 2.63,4.09 0,0 -7.35,4.87 -5.45,7.45 1.22,1.67 2.5,0.92 2.5,0.92 0,0 -1.82,1.66 -0.86,2.76 a 2.07,2.07 0 0 0 1.15,0.62 3.28,3.28 0 0 0 2.76,-0.4 l 1.21,-0.68 a 2.39,2.39 0 0 0 0.5,2.41 2.22,2.22 0 0 0 0.27,0.19 2.69,2.69 0 0 0 2.93,-0.09 L 361,170 l 0.24,1.34 c 0,0 -1.61,1.81 1.16,3.66 z"
         style="fill:#ffcaae;stroke-width:0.927989"
         id="path283" />
      <path
         d="m 362.4,175 a 3.88,3.88 0 0 1 -0.93,-0.71 2.78,2.78 0 0 1 -0.72,-1.22 2.22,2.22 0 0 1 0.4,-1.9 v 0.1 c -0.08,-0.42 -0.16,-0.87 -0.25,-1.34 l 0.21,0.09 -1.63,1.1 -0.89,0.6 a 3.53,3.53 0 0 1 -1.06,0.54 2.74,2.74 0 0 1 -2.49,-0.45 2,2 0 0 1 -0.72,-1.22 3.25,3.25 0 0 1 0.08,-1.45 l 0.3,0.24 c -0.59,0.32 -1.13,0.68 -1.81,1 a 3.47,3.47 0 0 1 -2.23,0.15 2.67,2.67 0 0 1 -1.11,-0.48 1.44,1.44 0 0 1 -0.58,-1.16 2.43,2.43 0 0 1 0.42,-1.2 5.53,5.53 0 0 1 0.79,-1 l 0.28,0.38 a 1.86,1.86 0 0 1 -1.66,0 2.94,2.94 0 0 1 -1.23,-1.11 2,2 0 0 1 -0.18,-1.7 5,5 0 0 1 0.77,-1.49 20.93,20.93 0 0 1 5,-4.51 l -0.1,0.14 a 1.8,1.8 0 0 0 -0.35,-1.33 8.68,8.68 0 0 0 -1,-1.28 c -0.39,-0.42 -0.79,-0.82 -1.19,-1.22 l -0.18,-0.17 0.17,-0.19 a 5.35,5.35 0 0 1 3.25,-1.69 6.78,6.78 0 0 1 3.52,0.49 4.06,4.06 0 0 1 2.48,2.4 4,4 0 0 1 -0.51,3.3 l -0.1,-0.35 1.79,0.79 a 2.6,2.6 0 0 1 1.35,1.51 4.72,4.72 0 0 1 -0.11,3.69 l -0.26,-0.31 a 2.36,2.36 0 0 1 1.93,0.09 2.59,2.59 0 0 1 1.14,1.45 2.76,2.76 0 0 1 -0.18,1.72 5.83,5.83 0 0 1 -0.79,1.38 l -0.1,-0.28 a 7.08,7.08 0 0 1 2.25,0.87 1.84,1.84 0 0 1 0.8,0.85 1.89,1.89 0 0 1 -0.07,1.09 8.37,8.37 0 0 1 -1.87,2.82 2.84,2.84 0 0 1 -1.83,1 1.67,1.67 0 0 1 -0.55,0 c -0.12,0 -0.18,-0.06 -0.18,-0.07 a 2.38,2.38 0 0 0 0.72,0 2.8,2.8 0 0 0 1.71,-1.06 8.51,8.51 0 0 0 1.74,-2.76 1.58,1.58 0 0 0 0,-0.91 1.55,1.55 0 0 0 -0.68,-0.69 6.69,6.69 0 0 0 -2.15,-0.78 l -0.26,-0.06 0.16,-0.22 a 3.66,3.66 0 0 0 0.86,-2.78 2.16,2.16 0 0 0 -1,-1.19 1.93,1.93 0 0 0 -1.58,-0.06 l -0.52,0.19 0.26,-0.5 a 4.33,4.33 0 0 0 0,-3.32 2.07,2.07 0 0 0 -1.11,-1.23 l -1.79,-0.78 -0.25,-0.11 0.15,-0.25 a 3.54,3.54 0 0 0 0.44,-2.87 3.59,3.59 0 0 0 -2.2,-2.09 6.35,6.35 0 0 0 -3.26,-0.45 4.85,4.85 0 0 0 -2.94,1.53 v -0.36 c 0.41,0.4 0.81,0.81 1.21,1.23 a 9.58,9.58 0 0 1 1.08,1.37 2.22,2.22 0 0 1 0.4,1.75 v 0.09 l -0.08,0.06 a 20.89,20.89 0 0 0 -4.86,4.36 c -0.6,0.82 -1.09,1.88 -0.58,2.64 a 2.5,2.5 0 0 0 1,0.93 1.41,1.41 0 0 0 1.22,0 l 1.4,-0.71 -1.12,1.09 a 3.08,3.08 0 0 0 -1.06,1.82 c -0.05,0.64 0.66,1.07 1.31,1.19 a 3,3 0 0 0 2,-0.1 c 0.59,-0.27 1.19,-0.65 1.77,-1 l 0.43,-0.23 -0.14,0.47 a 2,2 0 0 0 0.49,2.24 2.36,2.36 0 0 0 2.16,0.42 8.64,8.64 0 0 0 1.87,-1.07 l 1.65,-1.06 0.17,-0.12 v 0.2 c 0.07,0.48 0.15,0.93 0.22,1.35 v 0 0 a 2.07,2.07 0 0 0 -0.41,1.71 2.82,2.82 0 0 0 0.65,1.18 c 0.52,0.78 0.87,0.98 0.85,0.98 z"
         style="fill:#ff9a6c;stroke-width:0.927989"
         id="path285" />
      <path
         d="m 359.35,157.94 a 3.78,3.78 0 0 1 -0.5,1.81 11.29,11.29 0 0 1 -2.78,3.62 21.24,21.24 0 0 1 -3.73,2.59 6.54,6.54 0 0 1 -1.69,0.8 6.93,6.93 0 0 1 1.5,-1.12 31.84,31.84 0 0 0 3.57,-2.66 13.48,13.48 0 0 0 2.8,-3.39 c 0.55,-0.99 0.75,-1.68 0.83,-1.65 z"
         style="fill:#ff9a6c;stroke-width:0.927989"
         id="path287" />
      <path
         d="m 362,163.85 c 0.07,0 -0.07,0.63 -0.79,1.21 -0.72,0.58 -1.69,1.22 -2.79,2 a 22.28,22.28 0 0 1 -4.15,2.46 22.15,22.15 0 0 1 3.86,-2.89 c 1.1,-0.74 2.14,-1.38 2.86,-1.84 a 6.94,6.94 0 0 0 1.01,-0.94 z"
         style="fill:#ff9a6c;stroke-width:0.927989"
         id="path289" />
      <path
         d="m 364,168.55 c 0.08,0.11 -0.54,0.69 -1.47,1.1 -0.93,0.41 -1.78,0.48 -1.81,0.34 -0.03,-0.14 0.71,-0.43 1.6,-0.82 0.89,-0.39 1.62,-0.74 1.68,-0.62 z"
         style="fill:#ff9a6c;stroke-width:0.927989"
         id="path291" />
      <path
         d="m 363.57,170 c 0,0.15 -0.69,0.29 -1.37,0.78 -0.68,0.49 -1.05,1.08 -1.19,1 -0.14,-0.08 0.07,-0.87 0.89,-1.45 0.82,-0.58 1.69,-0.43 1.67,-0.33 z"
         style="fill:#ff9a6c;stroke-width:0.927989"
         id="path293" />
    </g>
  </g>
</svg>
