<?xml version="1.0" encoding="UTF-8" standalone="no"?>
<svg
   viewBox="0 0 500 500"
   version="1.1"
   id="svg198"
   sodipodi:docname="marketing-advertising.svg"
   inkscape:version="1.2.2 (b0a8486541, 2022-12-01)"
   xmlns:inkscape="http://www.inkscape.org/namespaces/inkscape"
   xmlns:sodipodi="http://sodipodi.sourceforge.net/DTD/sodipodi-0.dtd"
   xmlns="http://www.w3.org/2000/svg"
   xmlns:svg="http://www.w3.org/2000/svg">
  <defs
     id="defs202" />
  <sodipodi:namedview
     id="namedview200"
     pagecolor="#505050"
     bordercolor="#ffffff"
     borderopacity="1"
     inkscape:showpageshadow="0"
     inkscape:pageopacity="0"
     inkscape:pagecheckerboard="1"
     inkscape:deskcolor="#505050"
     showgrid="false"
     inkscape:zoom="0.62932504"
     inkscape:cx="53.231634"
     inkscape:cy="220.07705"
     inkscape:window-width="1920"
     inkscape:window-height="1051"
     inkscape:window-x="-9"
     inkscape:window-y="-9"
     inkscape:window-maximized="1"
     inkscape:current-layer="svg198" />
  <g
     id="g536"
     transform="matrix(1.0547633,0,0,1.0548258,-13.863933,-3.204502)"
     style="stroke-width:0.948052">
    <g
       id="freepik--background-simple--inject-4"
       style="stroke-width:0.948052">
      <path
         d="M 476.54,221.76 C 482.66,167.91 464.45,113.83 426.23,75.4 407.43,56.51 381.73,38.71 347.58,30.11 251.8,6 189.73,28.08 158.7,86.77 127.67,145.46 38.62,135.34 24.46,236.53 10.3,337.72 79.1,449 195.8,455.09 c 116.7,6.09 101.68,-52 165.52,-76.94 48.82,-19.06 106.08,-76.02 115.22,-156.39 z"
         style="fill:#006a39;stroke-width:0.948052"
         id="path2" />
      <path
         d="M 476.54,221.76 C 482.66,167.91 464.45,113.83 426.23,75.4 407.43,56.51 381.73,38.71 347.58,30.11 251.8,6 189.73,28.08 158.7,86.77 127.67,145.46 38.62,135.34 24.46,236.53 10.3,337.72 79.1,449 195.8,455.09 c 116.7,6.09 101.68,-52 165.52,-76.94 48.82,-19.06 106.08,-76.02 115.22,-156.39 z"
         style="opacity:0.7;fill:#ffffff;stroke-width:0.948052"
         id="path4" />
    </g>
    <g
       id="freepik--Plant--inject-4"
       style="stroke-width:0.948052">
      <path
         d="m 328,391.23 c 2.29,1 7.87,0.87 7.87,0.87 0,0 -1.2,-3.66 -1.3,-3.88 -1.23,-2.56 -5.1,-6.79 -8.25,-6.37 a 3.77,3.77 0 0 0 -3,4.72 c 0.51,2.18 2.75,3.81 4.68,4.66 z"
         style="fill:#263238;stroke-width:0.948052"
         id="path7" />
      <path
         d="m 329.94,407.4 c 2.37,0.34 7.35,-1.1 7.75,-1.22 a 65.61,65.61 0 0 0 3,8.36 c 0.68,1.59 1.42,3.16 2.19,4.73 -0.46,-0.66 -0.87,-1.25 -0.94,-1.33 -1.86,-2.15 -6.71,-5.2 -9.64,-4 a 3.77,3.77 0 0 0 -1.66,5.35 c 1.08,2 3.67,2.94 5.77,3.24 2.1,0.3 6.4,-0.83 7.52,-1.15 0.3,0.6 0.59,1.2 0.9,1.8 1.44,2.87 2.89,5.73 4.23,8.58 0.47,1 0.9,2 1.33,3 -0.4,-0.6 -0.75,-1.09 -0.81,-1.16 -1.86,-2.15 -6.71,-5.21 -9.64,-4 a 3.76,3.76 0 0 0 -1.67,5.34 c 1.09,2 3.67,2.95 5.77,3.25 2.1,0.3 6,-0.73 7.33,-1.1 0.41,1.05 0.82,2.09 1.18,3.12 0.22,0.71 0.49,1.37 0.67,2.09 0.18,0.72 0.4,1.42 0.59,2.12 0.33,1.36 0.67,2.76 1,4.09 0.2,0.93 0.38,1.82 0.56,2.71 -0.46,-1 -1.39,-3 -1.49,-3.11 -1.51,-2.4 -5.85,-6.16 -8.93,-5.38 a 3.78,3.78 0 0 0 -2.46,5 c 0.77,2.11 3.19,3.46 5.21,4.08 2.24,0.68 7.18,0.06 7.8,0 0.3,1.47 0.57,2.91 0.81,4.28 0.17,1 0.34,2 0.49,2.91 h 2 c -0.19,-1 -0.4,-2.12 -0.62,-3.26 -0.3,-1.5 -0.64,-3.1 -1,-4.74 a 40.09,40.09 0 0 0 4.35,-2 c 1.63,1.76 5.8,3.82 6.34,4.09 -0.57,1.39 -1.14,2.74 -1.69,4 -0.29,0.67 -0.58,1.31 -0.86,1.94 h 2.1 c 0.16,-0.4 0.33,-0.79 0.5,-1.21 0.58,-1.41 1.17,-2.93 1.77,-4.5 0.6,0.12 5.49,1.11 7.77,0.6 2.07,-0.47 4.58,-1.64 5.5,-3.68 a 3.77,3.77 0 0 0 -2.07,-5.21 c -3,-1 -7.62,2.42 -9.31,4.7 -0.1,0.14 -1,1.72 -1.57,2.73 0.24,-0.65 0.48,-1.27 0.72,-1.93 0.48,-1.31 0.92,-2.64 1.4,-4.06 q 0.32,-1 0.63,-2.1 c 0.22,-0.7 0.37,-1.47 0.56,-2.21 0.42,-1.72 0.75,-3.48 1,-5.27 1.15,0.42 5.25,1.85 7.38,1.7 2.13,-0.15 4.77,-0.93 6,-2.81 a 3.75,3.75 0 0 0 -1.26,-5.45 c -2.83,-1.46 -7.89,1.23 -9.91,3.23 -0.12,0.12 -1.41,1.72 -2.09,2.62 0.17,-1.08 0.34,-2.15 0.47,-3.24 0.4,-3.16 0.69,-6.36 1,-9.55 0.09,-1 0.2,-2 0.3,-2.93 0.41,0.15 5.25,1.95 7.63,1.78 2.11,-0.14 4.77,-0.92 6,-2.8 a 3.76,3.76 0 0 0 -1.26,-5.46 c -2.83,-1.46 -7.89,1.23 -9.91,3.23 -0.15,0.15 -2,2.46 -2.43,3.07 0.23,-2.15 0.47,-4.29 0.8,-6.39 a 67.56,67.56 0 0 1 1.83,-8.4 c 0.19,0.08 5.24,2 7.67,1.81 2.12,-0.15 4.78,-0.93 6,-2.81 a 3.77,3.77 0 0 0 -1.26,-5.46 c -2.83,-1.45 -7.9,1.23 -9.91,3.24 -0.16,0.15 -2.14,2.63 -2.47,3.11 0.05,-0.16 0.08,-0.33 0.13,-0.49 a 48.37,48.37 0 0 1 3.33,-8 c 0.72,-1.41 1.49,-2.72 2.27,-4 0.9,0.45 5.05,2.46 7.26,2.55 2.21,0.09 4.85,-0.4 6.27,-2.13 a 3.76,3.76 0 0 0 -0.66,-5.56 c -2.65,-1.76 -8,0.35 -10.2,2.12 -0.12,0.1 -1.24,1.21 -2,2 0.36,-0.57 0.72,-1.16 1.07,-1.69 1.33,-2 2.68,-3.76 3.88,-5.3 0.69,-0.87 1.33,-1.64 1.94,-2.36 1.11,0 5.61,-0.16 7.58,-1.08 1.97,-0.92 4.12,-2.59 4.58,-4.78 a 3.78,3.78 0 0 0 -3.15,-4.64 c -3.16,-0.34 -6.92,4 -8.07,6.59 -0.1,0.23 -1.26,3.91 -1.2,3.91 h 0.06 c -0.59,0.68 -1.23,1.41 -1.9,2.23 -1.24,1.52 -2.62,3.25 -4,5.23 a 66.8,66.8 0 0 0 -4.15,6.61 49.52,49.52 0 0 0 -3.54,8 v 0.11 c 0,-0.94 0,-3.54 -0.05,-3.74 -0.37,-2.82 -2.73,-8.05 -5.86,-8.62 a 3.76,3.76 0 0 0 -4.34,3.54 c -0.18,2.23 1.44,4.47 3,5.89 1.79,1.59 6.74,3.13 7.14,3.25 a 66,66 0 0 0 -2.1,8.64 c -0.3,1.71 -0.55,3.43 -0.79,5.16 0,-0.81 0,-1.53 0,-1.63 -0.36,-2.81 -2.72,-8 -5.85,-8.62 a 3.76,3.76 0 0 0 -4.34,3.54 c -0.18,2.24 1.44,4.48 3,5.89 1.56,1.41 5.8,2.84 6.92,3.19 -0.09,0.67 -0.17,1.33 -0.25,2 -0.39,3.2 -0.75,6.38 -1.21,9.5 -0.16,1.1 -0.36,2.17 -0.55,3.25 0,-0.72 0,-1.32 0,-1.41 -0.36,-2.82 -2.72,-8.05 -5.85,-8.62 a 3.76,3.76 0 0 0 -4.34,3.54 c -0.19,2.23 1.44,4.47 3,5.89 1.56,1.42 5.39,2.69 6.72,3.12 -0.24,1.1 -0.47,2.2 -0.74,3.25 -0.21,0.71 -0.35,1.41 -0.6,2.12 -0.25,0.71 -0.45,1.4 -0.67,2.09 -0.48,1.31 -1,2.67 -1.46,3.94 -0.34,0.89 -0.68,1.72 -1,2.57 0.17,-1.09 0.46,-3.24 0.47,-3.42 a 14.72,14.72 0 0 0 -2,-7.11 4.64,4.64 0 0 0 -0.06,-0.83 3.75,3.75 0 0 0 -4.6,-3.19 c -3.07,0.82 -5,6.21 -5.17,9 0,0.16 0.1,2 0.19,3.14 -0.15,-0.67 -0.29,-1.32 -0.46,-2 -0.32,-1.36 -0.69,-2.71 -1.07,-4.16 -0.21,-0.7 -0.42,-1.4 -0.64,-2.11 -0.22,-0.71 -0.49,-1.42 -0.74,-2.14 -0.61,-1.67 -1.3,-3.32 -2,-5 1.19,-0.29 5.4,-1.36 7.09,-2.66 1.69,-1.3 3.47,-3.4 3.45,-5.65 a 3.76,3.76 0 0 0 -4.07,-3.85 c -3.16,0.34 -5.9,5.38 -6.48,8.16 0,0.17 -0.22,2.22 -0.3,3.34 -0.45,-1 -0.9,-2 -1.39,-3 -1.41,-2.85 -2.93,-5.69 -4.43,-8.52 -0.46,-0.87 -0.91,-1.74 -1.36,-2.61 0.42,-0.1 5.45,-1.27 7.35,-2.72 1.68,-1.29 3.46,-3.4 3.45,-5.65 a 3.76,3.76 0 0 0 -4.07,-3.85 c -3.16,0.34 -5.9,5.38 -6.48,8.16 0,0.21 -0.31,3.15 -0.34,3.9 -1,-1.92 -2,-3.84 -2.85,-5.77 a 66.57,66.57 0 0 1 -3.11,-8 c 0.2,0 5.46,-1.24 7.4,-2.73 1.68,-1.29 3.47,-3.4 3.45,-5.64 a 3.78,3.78 0 0 0 -4.07,-3.86 c -3.16,0.35 -5.9,5.38 -6.47,8.16 -0.05,0.22 -0.33,3.39 -0.34,4 0,-0.16 -0.12,-0.32 -0.17,-0.48 a 48.16,48.16 0 0 1 -1.61,-8.46 c -0.18,-1.58 -0.26,-3.1 -0.3,-4.58 1,-0.12 5.57,-0.73 7.47,-1.88 1.9,-1.15 3.82,-3 4,-5.23 a 3.77,3.77 0 0 0 -3.62,-4.28 c -3.18,0 -6.46,4.7 -7.34,7.4 0,0.15 -0.36,1.7 -0.58,2.83 0,-0.67 0,-1.36 0,-2 0,-2.41 0.16,-4.61 0.31,-6.56 0.09,-1.11 0.2,-2.11 0.31,-3 0.92,-0.63 4.6,-3.23 5.73,-5.09 1.13,-1.86 2,-4.42 1.18,-6.51 a 3.77,3.77 0 0 0 -5.18,-2.13 c -2.82,1.46 -3.57,7.15 -3.1,10 0,0.24 1.11,4 1.16,3.92 h 0.05 c -0.12,0.89 -0.25,1.86 -0.36,2.91 -0.19,2 -0.39,4.16 -0.45,6.57 a 67.31,67.31 0 0 0 0.19,7.8 48.27,48.27 0 0 0 1.44,8.6 v 0.1 c -0.5,-0.78 -2,-2.93 -2.1,-3.09 -1.86,-2.14 -6.71,-5.2 -9.64,-4 a 3.77,3.77 0 0 0 -1.67,5.35 c 1,2.11 3.59,3.08 5.69,3.39 z"
         style="fill:#263238;stroke-width:0.948052"
         id="path9" />
      <path
         d="m 384.48,392.45 c 0,0 1,-3.71 1,-3.95 0.39,-2.81 -0.51,-8.48 -3.37,-9.86 a 3.76,3.76 0 0 0 -5.12,2.27 c -0.77,2.11 0.2,4.69 1.36,6.48 1.4,2.09 6.13,5.06 6.13,5.06 z"
         style="fill:#263238;stroke-width:0.948052"
         id="path11" />
    </g>
    <g
       id="freepik--Heart--inject-4"
       style="stroke-width:0.948052">
      <path
         d="m 438.32,341.79 -2.27,2.29 -14.46,14.46 -14.47,-14.46 -2.28,-2.29 a 10.224764,10.224764 0 0 1 14.46,-14.46 l 2.29,2.29 2.28,-2.29 a 10.221229,10.221229 0 1 1 14.45,14.46 z"
         style="fill:none;stroke:#263238;stroke-width:0.948052;stroke-linecap:round;stroke-linejoin:round"
         id="path14" />
    </g>
    <g
       id="freepik--Stars--inject-4"
       style="stroke-width:0.948052">
      <polygon
         points="61.9,374.31 68.82,374.31 70.95,367.74 73.09,374.31 80.01,374.31 74.41,378.38 76.55,384.96 70.95,380.89 65.36,384.96 67.5,378.38 "
         style="fill:none;stroke:#263238;stroke-width:0.948052;stroke-linecap:round;stroke-linejoin:round"
         id="polygon17" />
      <polygon
         points="83.44,374.31 90.35,374.31 92.49,367.74 94.63,374.31 101.54,374.31 95.95,378.38 98.08,384.96 92.49,380.89 86.89,384.96 89.03,378.38 "
         style="fill:none;stroke:#263238;stroke-width:0.948052;stroke-linecap:round;stroke-linejoin:round"
         id="polygon19" />
      <polygon
         points="104.97,374.31 111.88,374.31 114.02,367.74 116.16,374.31 123.07,374.31 117.48,378.38 119.62,384.96 114.02,380.89 108.43,384.96 110.56,378.38 "
         style="fill:none;stroke:#263238;stroke-width:0.948052;stroke-linecap:round;stroke-linejoin:round"
         id="polygon21" />
      <polygon
         points="126.5,374.31 133.42,374.31 135.56,367.74 137.69,374.31 144.61,374.31 139.01,378.38 141.15,384.96 135.56,380.89 129.96,384.96 132.1,378.38 "
         style="fill:none;stroke:#263238;stroke-width:0.948052;stroke-linecap:round;stroke-linejoin:round"
         id="polygon23" />
      <polygon
         points="148.03,374.31 154.95,374.31 157.09,367.74 159.22,374.31 166.14,374.31 160.55,378.38 162.68,384.96 157.09,380.89 151.49,384.96 153.63,378.38 "
         style="fill:none;stroke:#263238;stroke-width:0.948052;stroke-linecap:round;stroke-linejoin:round"
         id="polygon25" />
    </g>
    <g
       id="freepik--device-2--inject-4"
       style="stroke-width:0.948052">
      <path
         d="m 365,70.27 h 71 a 4.4,4.4 0 0 1 4.4,4.4 v 48.1 h -79.78 v -48.1 a 4.4,4.4 0 0 1 4.38,-4.4 z"
         style="fill:none;stroke:#263238;stroke-width:0.948052;stroke-linecap:round;stroke-linejoin:round"
         id="path28" />
      <path
         d="m 367.39,72.09 h 66.24 a 4,4 0 0 1 4,4 v 44.86 H 363.39 V 76.09 a 4,4 0 0 1 4,-4 z"
         style="fill:none;stroke:#263238;stroke-width:0.948052;stroke-linecap:round;stroke-linejoin:round"
         id="path30" />
      <path
         d="m 355.47,122.91 h 90.07 a 4.78,4.78 0 0 1 -4.77,4.78 h -80.52 a 4.78,4.78 0 0 1 -4.78,-4.78 z"
         style="fill:none;stroke:#263238;stroke-width:0.948052;stroke-linecap:round;stroke-linejoin:round"
         id="path32" />
    </g>
    <g
       id="freepik--device-1--inject-4"
       style="stroke-width:0.948052">
      <rect
         x="72.300003"
         y="58.48"
         width="37.299999"
         height="74.589996"
         rx="4.1146674"
         style="fill:none;stroke:#263238;stroke-width:0.948052;stroke-linecap:round;stroke-linejoin:round"
         id="rect35"
         ry="4.1144238" />
      <path
         d="m 72.3,123.91 v 4.15 c 0,2.77 1.85,5 4.14,5 h 29 c 2.29,0 4.14,-2.24 4.14,-5 v -4.15 z"
         style="fill:none;stroke:#263238;stroke-width:0.948052;stroke-linecap:round;stroke-linejoin:round"
         id="path37" />
      <path
         d="m 109.59,67.64 v -4.15 c 0,-2.77 -1.85,-5 -4.14,-5 h -29 c -2.29,0 -4.14,2.24 -4.14,5 v 4.15 z"
         style="fill:none;stroke:#263238;stroke-width:0.948052;stroke-linecap:round;stroke-linejoin:round"
         id="path39" />
    </g>
    <g
       id="freepik--speech-bubble-6--inject-4"
       style="stroke-width:0.948052">
      <path
         d="M 330.5,298.57 V 257 a 5.15,5.15 0 0 1 5.31,-5 h 6.39 L 341.37,238.78 352.22,252 H 378 a 5.15,5.15 0 0 1 5.31,5 v 41.61 a 5.15,5.15 0 0 1 -5.31,5 h -42.19 a 5.15,5.15 0 0 1 -5.31,-5.04 z"
         style="fill:#263238;stroke:#263238;stroke-width:0.948052;stroke-linecap:round;stroke-linejoin:round"
         id="path42" />
      <path
         d="m 346.79,271.75 c 0,0 7.8,-1 9.51,-1.71 1.71,-0.71 4.63,-2.68 3.65,-7.8 -0.98,-5.12 1,-4.63 2.93,-3.9 1.93,0.73 3.41,4.63 3.17,6.58 a 21.08,21.08 0 0 0 0.24,4.88 c 0,0 9,0.73 9.75,1 0.75,0.27 1,2.68 1,3.9 0,1.22 0,3.17 -1,3.66 -1,0.49 -2.68,1.22 -2.68,1.22 0,0 -1.22,7.31 -1.46,9 -0.24,1.69 0,3.17 -1.95,3.9 a 9.22,9.22 0 0 1 -5.12,0.25 c -1.71,-0.25 -18.77,-1.71 -18.77,-1.71 z"
         style="fill:#ffffff;stroke:#263238;stroke-width:0.948052;stroke-linecap:round;stroke-linejoin:round"
         id="path44" />
      <rect
         x="335.09"
         y="269.54999"
         width="14.38"
         height="25.110001"
         style="fill:#006a39;stroke:#263238;stroke-width:0.948052;stroke-linecap:round;stroke-linejoin:round"
         id="rect46" />
    </g>
    <g
       id="freepik--speech-bubble-5--inject-4"
       style="stroke-width:0.948052">
      <path
         d="m 403.12,162.36 h -51.49 a 5,5 0 0 0 -5,5 v 8.81 l -13.23,-0.78 13.23,10.14 v 10.08 a 5,5 0 0 0 5,5 h 51.49 a 5,5 0 0 0 5,-5 v -28.29 a 5,5 0 0 0 -5,-4.96 z"
         style="fill:#ffffff;stroke:#263238;stroke-width:0.948052;stroke-linecap:round;stroke-linejoin:round"
         id="path49" />
      <polygon
         points="387.86,211.62 383.95,188.22 368.84,189.44 366.65,212.1 377.37,203.33 "
         style="fill:#263238;stroke:#263238;stroke-width:0.948052;stroke-linecap:round;stroke-linejoin:round"
         id="polygon51" />
      <path
         d="m 392,175.68 c 0,-1.81 1.66,-3.87 1.13,-5.5 -0.53,-1.63 -3.12,-2.38 -4.15,-3.79 -1.03,-1.41 -0.9,-4.08 -2.32,-5.12 -1.42,-1.04 -3.89,-0.08 -5.59,-0.63 -1.7,-0.55 -3.07,-2.77 -4.89,-2.77 -1.82,0 -3.25,2.24 -4.89,2.77 -1.64,0.53 -4.17,-0.4 -5.58,0.63 -1.41,1.03 -1.29,3.69 -2.33,5.12 -1.04,1.43 -3.6,2.09 -4.15,3.79 -0.55,1.7 1.13,3.69 1.13,5.5 0,1.81 -1.66,3.87 -1.13,5.51 0.53,1.64 3.13,2.38 4.15,3.79 1.02,1.41 0.9,4.08 2.33,5.12 1.43,1.04 3.89,0.08 5.58,0.63 1.69,0.55 3.08,2.77 4.89,2.77 1.81,0 3.25,-2.24 4.89,-2.77 1.64,-0.53 4.17,0.4 5.59,-0.63 1.42,-1.03 1.28,-3.69 2.32,-5.12 1.04,-1.43 3.6,-2.09 4.15,-3.79 0.55,-1.7 -1.13,-3.69 -1.13,-5.51 z"
         style="fill:#006a39;stroke:#263238;stroke-width:0.948052;stroke-linecap:round;stroke-linejoin:round"
         id="path53" />
      <circle
         cx="376.13"
         cy="175.67999"
         r="13.95"
         transform="rotate(-8.56,376.31127,175.76608)"
         style="fill:#ffffff;stroke:#263238;stroke-width:0.948052;stroke-linecap:round;stroke-linejoin:round"
         id="circle55" />
      <path
         d="m 375.37,183.87 v -13.23 l -0.51,0.24 -0.6,0.26 -0.62,0.26 -0.54,0.24 v -2.54 l 0.63,-0.34 c 0.28,-0.14 0.57,-0.3 0.89,-0.48 0.32,-0.18 0.6,-0.36 0.88,-0.54 a 4.12,4.12 0 0 0 0.61,-0.49 h 2.69 v 16.62 z"
         style="fill:#263238;stroke-width:0.948052"
         id="path57" />
    </g>
    <g
       id="freepik--speech-bubble-4--inject-4"
       style="stroke-width:0.948052">
      <path
         d="m 337.17,49.33 h -51.49 a 5,5 0 0 0 -5,5 v 22.33 a 5,5 0 0 0 5,5 h 3.22 l -4.19,11 11.66,-11 h 40.8 a 5,5 0 0 0 5,-5 V 54.29 a 5,5 0 0 0 -5,-4.96 z"
         style="fill:#ffffff;stroke:#263238;stroke-width:0.948052;stroke-linecap:round;stroke-linejoin:round"
         id="path60" />
      <circle
         cx="300.63"
         cy="65.860001"
         r="2.01"
         style="fill:#263238;stroke-width:0.948052"
         id="circle62" />
      <circle
         cx="310.67001"
         cy="65.860001"
         r="2.01"
         style="fill:#263238;stroke-width:0.948052"
         id="circle64" />
      <circle
         cx="320.70999"
         cy="65.860001"
         r="2.01"
         style="fill:#263238;stroke-width:0.948052"
         id="circle66" />
    </g>
    <g
       id="freepik--speech-bubble-3--inject-4"
       style="stroke-width:0.948052">
      <path
         d="M 209.45,108.59 199,102.69 V 91.07 a 5,5 0 0 0 -5,-5 h -61 a 5,5 0 0 0 -5,5 v 25.79 a 5,5 0 0 0 5,5 h 61 a 5,5 0 0 0 5,-5 v -7.36 z"
         style="fill:#263238;stroke:#263238;stroke-width:0.948052;stroke-linecap:round;stroke-linejoin:round"
         id="path69" />
      <polygon
         points="133.72,102.28 137.72,102.28 138.95,98.47 140.19,102.28 144.18,102.28 140.95,104.62 142.18,108.42 138.95,106.08 135.72,108.42 136.95,104.62 "
         style="fill:#ffffff;stroke-width:0.948052"
         id="polygon71" />
      <polygon
         points="146.16,102.28 150.16,102.28 151.39,98.47 152.63,102.28 156.62,102.28 153.39,104.62 154.63,108.42 151.39,106.08 148.16,108.42 149.4,104.62 "
         style="fill:#ffffff;stroke-width:0.948052"
         id="polygon73" />
      <polygon
         points="158.6,102.28 162.6,102.28 163.84,98.47 165.07,102.28 169.07,102.28 165.83,104.62 167.07,108.42 163.84,106.08 160.6,108.42 161.84,104.62 "
         style="fill:#ffffff;stroke-width:0.948052"
         id="polygon75" />
      <polygon
         points="171.05,102.28 175.04,102.28 176.28,98.47 177.51,102.28 181.51,102.28 178.28,104.62 179.51,108.42 176.28,106.08 173.04,108.42 174.28,104.62 "
         style="fill:#ffffff;stroke-width:0.948052"
         id="polygon77" />
      <polygon
         points="183.49,102.28 187.49,102.28 188.72,98.47 189.96,102.28 193.95,102.28 190.72,104.62 191.95,108.42 188.72,106.08 185.49,108.42 186.72,104.62 "
         style="fill:#ffffff;stroke-width:0.948052"
         id="polygon79" />
    </g>
    <g
       id="freepik--speech-bubble-2--inject-4"
       style="stroke-width:0.948052">
      <path
         d="m 143,189.85 h -15.61 v -8.28 a 5,5 0 0 0 -5,-5 H 83.93 a 5,5 0 0 0 -5,5 v 22.37 a 5,5 0 0 0 5,5 h 38.5 a 5,5 0 0 0 5,-5 v -7.13 z"
         style="fill:#ffffff;stroke:#263238;stroke-width:0.948052;stroke-linecap:round;stroke-linejoin:round"
         id="path82" />
      <path
         d="m 113.34,193.84 -1.52,1.53 -9.6,9.61 -9.62,-9.61 -1.52,-1.53 a 6.7917616,6.7917616 0 0 1 9.61,-9.6 l 1.53,1.52 1.51,-1.52 a 6.7917616,6.7917616 0 0 1 9.61,9.6 z"
         style="fill:#006a39;stroke:#263238;stroke-width:0.948052;stroke-linecap:round;stroke-linejoin:round"
         id="path84" />
    </g>
    <g
       id="freepik--speech-bubble-1--inject-4"
       style="stroke-width:0.948052">
      <path
         d="m 102.22,246.4 h 55.94 a 5.93,5.93 0 0 1 5.73,6.13 V 257 l 14.92,-6.19 -14.92,17.77 v 43.21 a 5.94,5.94 0 0 1 -5.73,6.13 h -55.94 a 5.94,5.94 0 0 1 -5.73,-6.13 v -59.26 a 5.93,5.93 0 0 1 5.73,-6.13 z"
         style="fill:#ffffff;stroke:#263238;stroke-width:0.948052;stroke-linecap:round;stroke-linejoin:round"
         id="path87" />
      <circle
         cx="126.12"
         cy="272.23001"
         r="18.530001"
         style="fill:#263238;stroke:#263238;stroke-width:0.948052;stroke-linecap:round;stroke-linejoin:round"
         id="circle89" />
      <path
         d="m 125.8,286.19 v -2.7 a 5.51,5.51 0 0 1 -4.2,-1.81 8.26,8.26 0 0 1 -1.51,-5.15 l 4.16,-0.62 a 11,11 0 0 0 0.24,2.28 2.48,2.48 0 0 0 0.64,1.25 1.44,1.44 0 0 0 1,0.38 1,1 0 0 0 1,-0.51 2.57,2.57 0 0 0 0.23,-1.09 4,4 0 0 0 -0.63,-2.3 A 9.78,9.78 0 0 0 125,274 l -1.93,-1.66 a 16.14,16.14 0 0 1 -1.48,-1.51 6.17,6.17 0 0 1 -1.07,-1.79 6.39,6.39 0 0 1 -0.41,-2.44 5.44,5.44 0 0 1 1.48,-4.05 6.11,6.11 0 0 1 4,-1.66 v -2.58 h 1.39 v 2.55 a 5,5 0 0 1 2.53,0.73 4.2,4.2 0 0 1 1.43,1.57 7.26,7.26 0 0 1 0.65,2 12.78,12.78 0 0 1 0.2,1.94 l -4.21,0.52 q 0,-1 -0.12,-1.71 a 2.54,2.54 0 0 0 -0.38,-1.13 1,1 0 0 0 -0.92,-0.37 1.08,1.08 0 0 0 -1,0.57 2.26,2.26 0 0 0 -0.33,1.14 3.16,3.16 0 0 0 0.67,2.11 13.78,13.78 0 0 0 1.45,1.51 l 1.85,1.6 a 16.88,16.88 0 0 1 1.7,1.8 7.87,7.87 0 0 1 1.24,2.12 7.26,7.26 0 0 1 0.46,2.69 5.82,5.82 0 0 1 -0.6,2.64 5,5 0 0 1 -1.71,1.95 5.89,5.89 0 0 1 -2.66,0.91 v 2.72 z"
         style="fill:#ffffff;stroke-width:0.948052"
         id="path91" />
      <path
         d="M 159.49,272.72 147,277 l 3.44,3 -17.5,20 -10.54,-5.81 a 2,2 0 0 0 -2.18,0.17 L 103.68,307 a 2.001081,2.001081 0 0 0 2.43,3.18 l 15.53,-11.88 10.8,5.95 a 2,2 0 0 0 2.47,-0.43 l 18.57,-21.17 3.44,3 z"
         style="fill:#006a39;stroke:#263238;stroke-width:0.948052;stroke-linecap:round;stroke-linejoin:round"
         id="path93" />
    </g>
    <g
       id="freepik--Character--inject-4"
       style="stroke-width:0.948052">
      <path
         d="m 212.36,281.55 c 0,0 4.35,83 6.53,99.82 2.18,16.82 6.53,41.36 6.53,41.36 0,0 -3.11,2.18 -3.73,4.36 -0.62,2.18 0.31,10.26 0.31,10.26 l 22.7,1.55 c 0,0 0.93,-5.59 0.93,-18.35 v -19 c 0,-2.48 3.74,-108.84 3.74,-108.84 l 2.79,109.16 c 0,0 -0.93,33.89 0.63,34.51 a 27.28,27.28 0 0 1 4.35,2.8 l 19.9,-0.62 a 65.18,65.18 0 0 0 1.56,-11.19 c 0,-4.36 -2.8,-12.75 -2.49,-17.42 0.31,-4.67 8.4,-42.6 8.4,-49.13 V 259.15 H 213 Z"
         style="fill:#263238;stroke:#263238;stroke-width:0.948052;stroke-linecap:round;stroke-linejoin:round"
         id="path96" />
      <path
         d="m 242.52,437.35 c 0,0 -8.39,-7.15 -12.12,-6.53 -3.73,0.62 -7.16,2.8 -7.47,3.73 -0.31,0.93 -2.49,2.8 -3.11,4.66 -0.62,1.86 -10.57,11.2 -12.75,13.69 -2.18,2.49 -3.73,2.8 -1.86,4.35 a 9,9 0 0 0 4,1.87 h 35.49 c 0,0 1.25,-2.8 0.93,-8.4 -0.32,-5.6 -0.93,-11.82 -0.93,-11.82 z"
         style="fill:#ffffff;stroke:#263238;stroke-width:0.948052;stroke-linecap:round;stroke-linejoin:round"
         id="path98" />
      <path
         d="m 204.38,456 c 0,0.36 0.22,0.73 0.83,1.24 a 9,9 0 0 0 4,1.87 h 35.49 a 12.85,12.85 0 0 0 0.75,-3.11 z"
         style="fill:#ffffff;stroke:#263238;stroke-width:0.948052;stroke-linecap:round;stroke-linejoin:round"
         id="path100" />
      <path
         d="m 257.27,437.35 c 0,0 7.91,-7.15 11.43,-6.53 3.52,0.62 6.74,2.8 7,3.73 0.26,0.93 2.34,2.8 2.93,4.66 0.59,1.86 10,11.2 12,13.69 2,2.49 3.52,2.8 1.76,4.35 a 8.23,8.23 0 0 1 -3.81,1.87 h -33.4 c 0,0 -1.17,-2.8 -0.88,-8.4 0.29,-5.6 0.88,-11.82 0.88,-11.82 z"
         style="fill:#ffffff;stroke:#263238;stroke-width:0.948052;stroke-linecap:round;stroke-linejoin:round"
         id="path102" />
      <path
         d="m 293.21,456 c 0,0.36 -0.21,0.73 -0.78,1.24 a 8.23,8.23 0 0 1 -3.81,1.87 h -33.4 A 13.8,13.8 0 0 1 254.51,456 Z"
         style="fill:#ffffff;stroke:#263238;stroke-width:0.948052;stroke-linecap:round;stroke-linejoin:round"
         id="path104" />
      <path
         d="m 238.57,147.67 -9,7.64 1.62,105.56 h 38.89 c 0,0 1.85,-107.88 1.16,-109.5 -0.69,-1.62 -4.86,-3.24 -4.86,-3.24 z"
         style="fill:#ffffff;stroke:#263238;stroke-width:0.948052;stroke-linecap:round;stroke-linejoin:round"
         id="path106" />
      <path
         d="m 304.53,193.66 15.47,4.28 c 0,0 -15.67,-28.74 -18.52,-35.63 -2.23,-5.38 -5,-7 -6.15,-7.43 -5.93,-3.83 -28.94,-6.75 -28.94,-6.75 l -1.8,52.71 -2.75,87.48 h 32.73 c 0,0 -2.76,-30.89 -4.28,-40.68 l -2.15,-13.77 c 0,0 2.65,-21 5,-41.11 z"
         style="fill:#006a39;stroke:#263238;stroke-width:0.948052;stroke-linecap:round;stroke-linejoin:round"
         id="path108" />
      <path
         d="m 270,214.44 a 42.42,42.42 0 0 1 -3.8,7.58"
         style="fill:none;stroke:#263238;stroke-width:0.948052;stroke-linecap:round;stroke-linejoin:round"
         id="path110" />
      <path
         d="m 271.21,151.37 5.44,12.11 -4.47,4.85 7.08,8.57 c 0,0 -2.76,18.67 -7.63,33.13"
         style="fill:none;stroke:#263238;stroke-width:0.948052;stroke-linecap:round;stroke-linejoin:round"
         id="path112" />
      <path
         d="m 235.91,122.07 c 0,0 -2.91,-4 -5,-1.13 -2.09,2.87 5.82,12.78 5.82,12.78 z"
         style="fill:#ffffff;stroke:#263238;stroke-width:0.948052;stroke-linecap:round;stroke-linejoin:round"
         id="path114" />
      <path
         d="m 269.56,122.07 c 0,0 2.91,-4 5,-1.13 2.09,2.87 -5.82,12.78 -5.82,12.78 z"
         style="fill:#ffffff;stroke:#263238;stroke-width:0.948052;stroke-linecap:round;stroke-linejoin:round"
         id="path116" />
      <path
         d="m 235.26,119.81 c 0,0 1.78,18.6 2.11,21.84 0.33,3.24 1.45,10.19 2.75,12.61 1.3,2.42 10.19,11.49 12.61,10.52 2.42,-0.97 10.84,-9.71 13.11,-12.3 2.27,-2.59 1.45,-7.28 1.78,-8.41 0.33,-1.13 1.61,-12.29 1.61,-12.29 L 270,120 c 0,0 0.33,-1.13 -0.16,-8.41 -0.49,-7.28 -0.48,-10.52 -1.29,-12.3 -0.81,-1.78 -2.91,-2.75 -6.64,-3.72 -3.73,-0.97 -12.61,-0.8 -18.11,1.95 -5.5,2.75 -8.25,6.63 -8.41,8.08 -0.16,1.45 -0.13,14.21 -0.13,14.21 z"
         style="fill:#ffffff;stroke:#263238;stroke-width:0.948052;stroke-linecap:round;stroke-linejoin:round"
         id="path118" />
      <path
         d="m 250.15,114.47 c 0,0 -5,-3.24 -7.77,1"
         style="fill:none;stroke:#263238;stroke-width:0.948052;stroke-linecap:round;stroke-linejoin:round"
         id="path120" />
      <path
         d="m 257.1,114.79 a 5.55,5.55 0 0 1 6.8,0.81"
         style="fill:none;stroke:#263238;stroke-width:0.948052;stroke-linecap:round;stroke-linejoin:round"
         id="path122" />
      <path
         d="m 255.65,116.41 a 8.23,8.23 0 0 1 1,4 c 0.16,2.91 -0.33,8.89 -0.33,8.89 l -6.14,-0.65"
         style="fill:none;stroke:#263238;stroke-width:0.948052;stroke-linecap:round;stroke-linejoin:round"
         id="path124" />
      <path
         d="m 246.91,130.81 c 0,0 3.07,5 10.84,2.42"
         style="fill:none;stroke:#263238;stroke-width:0.948052;stroke-linecap:round;stroke-linejoin:round"
         id="path126" />
      <path
         d="m 247.88,119.24 c 0,0.94 -0.43,1.7 -1,1.7 -0.57,0 -1,-0.76 -1,-1.7 0,-0.94 0.44,-1.7 1,-1.7 0.56,0 1,0.76 1,1.7 z"
         style="fill:#263238;stroke-width:0.948052"
         id="path128" />
      <path
         d="m 261.63,119.24 c 0,0.94 -0.43,1.7 -1,1.7 -0.57,0 -1,-0.76 -1,-1.7 0,-0.94 0.43,-1.7 1,-1.7 0.57,0 1,0.76 1,1.7 z"
         style="fill:#263238;stroke-width:0.948052"
         id="path130" />
      <path
         d="m 249.18,121.43 a 11,11 0 0 1 -4.53,2.58"
         style="fill:none;stroke:#263238;stroke-width:0.948052;stroke-linecap:round;stroke-linejoin:round"
         id="path132" />
      <path
         d="m 258.72,121.43 c 0,0 1.94,2.26 4.21,2.58"
         style="fill:none;stroke:#263238;stroke-width:0.948052;stroke-linecap:round;stroke-linejoin:round"
         id="path134" />
      <path
         d="m 247.07,146.34 c 0,0 3.08,3.72 11.65,0.16"
         style="fill:none;stroke:#263238;stroke-width:0.948052;stroke-linecap:round;stroke-linejoin:round"
         id="path136" />
      <path
         d="m 233.49,104.6 c 0,0 0.48,16.34 1,16.66 0.52,0.32 1.94,0.65 2.26,-0.48 a 32.47,32.47 0 0 0 0.16,-5.34 c 0,0 1.62,-0.16 1.94,-2.75 0.32,-2.59 -1.13,-7.12 -1.13,-7.12 0,0 5.82,-4.2 11.32,-5.82 5.5,-1.62 8.42,0.81 11.81,1 a 8,8 0 0 0 5.5,-1.78 c 0,0 -1.62,2.43 -1.62,3.56 0,1.13 2.11,7.12 1.78,8.9 -0.33,1.78 -0.64,3.72 0.33,4.36 0.97,0.64 2.1,1.46 2.1,1.46 0,0 0,4.37 0.65,4.69 0.65,0.32 1.78,-1.45 1.94,-3.88 0.16,-2.43 0.16,-8.25 1,-10 0.84,-1.75 2.1,-3.07 1.13,-5.66 -0.97,-2.59 -4.37,-4.85 -4.85,-5 -0.48,-0.15 -6.63,-8.08 -14.56,-10 -7.93,-1.92 -20.54,9.39 -21.84,12.95 -1.3,3.56 1.08,4.25 1.08,4.25 z"
         style="fill:#263238;stroke:#263238;stroke-width:0.948052;stroke-linecap:round;stroke-linejoin:round"
         id="path138" />
      <path
         d="m 162.11,162 a 49.45,49.45 0 0 1 -2.23,-7 c -0.35,-2.23 -3.1,-5.84 -5.84,-6.87 a 20.16,20.16 0 0 1 -7.73,-5.33 c -2.41,-2.57 -3.78,-3.43 -4.13,-0.86 -0.35,2.57 1.38,3.78 3.1,5.33 1.72,1.55 3.43,2.92 3.43,2.92 a 21.26,21.26 0 0 1 -5.32,1 34,34 0 0 1 -9.45,-0.86 c -2.58,-0.69 -11.51,-7.21 -10.65,-4.64 0.86,2.57 5.15,5.84 8.59,9.11 3.44,3.27 5.67,5 9.62,6.18 3.95,1.18 10.3,2.75 10.3,2.75 l 3.61,4.81 z"
         style="fill:#ffffff;stroke:#263238;stroke-width:0.948052;stroke-linecap:round;stroke-linejoin:round"
         id="path140" />
      <path
         d="m 135.49,157.37 c 0,0 -5.5,-4.12 -6.36,-8.76 -0.86,-4.64 -0.51,-6.35 0.69,-5.67 1.2,0.68 4.12,7.39 4.12,7.39 l 5.15,5.67"
         style="fill:#ffffff;stroke:#263238;stroke-width:0.948052;stroke-linecap:round;stroke-linejoin:round"
         id="path142" />
      <path
         d="m 140.12,159.61 c 0,0 -5.15,-3.1 -5.66,-6.19 -0.51,-3.09 -1.72,-12.19 -0.52,-11.51 1.2,0.68 3.61,10.31 3.61,10.31 l 2.92,2.58"
         style="fill:#ffffff;stroke:#263238;stroke-width:0.948052;stroke-linecap:round;stroke-linejoin:round"
         id="path144" />
      <path
         d="m 143,159.78 c 0,0 -3.09,-6 -3.78,-7.9 -0.69,-1.9 -2.23,-9.79 -0.68,-9.45 1.55,0.34 2.92,8.24 2.92,8.24 l 3.95,5 c 0,0 5.49,-1.72 7,-1.38 1.51,0.34 3.44,3.44 3.44,3.44"
         style="fill:#ffffff;stroke:#263238;stroke-width:0.948052;stroke-linecap:round;stroke-linejoin:round"
         id="path146" />
      <polygon
         points="166.19,164.73 162.08,160.92 151.93,171.51 154.91,175.42 "
         style="fill:#ffffff;stroke:#263238;stroke-width:0.948052;stroke-linecap:round;stroke-linejoin:round"
         id="polygon148" />
      <path
         d="m 238.57,147.67 c 0,0 -3.48,27.54 -3.94,43.29 -0.46,15.75 1.16,98.39 1.16,98.39 L 205,288.42 c 0,0 3.47,-29.17 6,-39.82 a 93.18,93.18 0 0 0 1.85,-25 c -0.23,-1.39 -1.85,-14.12 -1.85,-14.12 0,0 -17.37,11.57 -19.45,11.34 -2.08,-0.23 -14.12,-9 -23.38,-20.6 a 99.64,99.64 0 0 1 -14.12,-25 l 10.95,-12.51 25.93,25.93 c 0,0 13.42,-27.08 14.81,-27.78 1.39,-0.7 32.83,-13.19 32.83,-13.19 z"
         style="fill:#006a39;stroke:#263238;stroke-width:0.948052;stroke-linecap:round;stroke-linejoin:round"
         id="path150" />
      <path
         d="M 225.78,195.27 A 167.72,167.72 0 0 0 233,221.64"
         style="fill:none;stroke:#263238;stroke-width:0.948052;stroke-linecap:round;stroke-linejoin:round"
         id="path152" />
      <path
         d="m 232.66,152.29 -5.6,14.17 4.48,3.73 -7.83,8.2 a 101.87,101.87 0 0 0 1.34,12.61"
         style="fill:none;stroke:#263238;stroke-width:0.948052;stroke-linecap:round;stroke-linejoin:round"
         id="path154" />
      <path
         d="m 210.32,205.77 c 0,0 -4.63,-20.37 -6,-28.47"
         style="fill:#ffffff;stroke:#263238;stroke-width:0.948052;stroke-linecap:round;stroke-linejoin:round"
         id="path156" />
      <polyline
         points="238.07 163.4 242.02 174.99 252.74 164.78 261.25 175.78 264.98 165.89"
         style="fill:#ffffff;stroke:#263238;stroke-width:0.948052;stroke-linecap:round;stroke-linejoin:round"
         id="polyline158" />
      <polygon
         points="256.86,170.77 252.02,179.41 246.46,170.71 252.74,164.78 "
         style="fill:#263238;stroke:#263238;stroke-width:0.948052;stroke-linecap:round;stroke-linejoin:round"
         id="polygon160" />
      <polygon
         points="252.02,179.41 241.24,251.59 250.85,259.32 258.35,251.36 "
         style="fill:#263238;stroke:#263238;stroke-width:0.948052;stroke-linecap:round;stroke-linejoin:round"
         id="polygon162" />
      <circle
         cx="291.54001"
         cy="136.21001"
         r="14.3"
         transform="rotate(-13.37,291.42766,136.17341)"
         style="fill:#ffffff;stroke:#263238;stroke-width:0.948052;stroke-linecap:round;stroke-linejoin:round"
         id="circle164" />
      <path
         d="m 282.15,154.58 c 0,0 -0.49,6.4 -0.12,7.63 0.37,1.23 3,6.15 3,6.15 0,0 -0.37,3.45 0.24,4.56 0.61,1.11 6.52,8.12 6.52,8.12 l 7,-6.16 -3.97,-7.88 -0.12,-10.21 c 0,0 -7.7,-6.63 -12.55,-2.21 z"
         style="fill:#ffffff;stroke:#263238;stroke-width:0.948052;stroke-linecap:round;stroke-linejoin:round"
         id="path166" />
      <path
         d="m 285.63,147.52 2.16,17.75 a 3.48,3.48 0 0 0 3.84,3 v 0 a 3.48,3.48 0 0 0 3.09,-3.58 l -0.62,-18.13 c 0,0 -5.34,-4.01 -8.47,0.96 z"
         style="fill:#ffffff;stroke:#263238;stroke-width:0.948052;stroke-linecap:round;stroke-linejoin:round"
         id="path168" />
      <path
         d="m 286,151.39 c 0,0 -4.6,0.55 -4.6,2 0,1.45 1.65,8.1 3.12,8.47 1.47,0.37 2.58,0.37 2.58,-2.58 a 48.66,48.66 0 0 0 -1.1,-7.89 z"
         style="fill:#ffffff;stroke:#263238;stroke-width:0.948052;stroke-linecap:round;stroke-linejoin:round"
         id="path170" />
      <path
         d="m 296.86,156.36 c 0,0 -10.68,0.92 -10.86,2 -0.18,1.08 0.18,3.87 0.92,3.87 0.74,0 10.3,0.07 10.49,-1 0.19,-1.07 0.74,-3.4 -0.55,-4.87 z"
         style="fill:#ffffff;stroke:#263238;stroke-width:0.948052;stroke-linecap:round;stroke-linejoin:round"
         id="path172" />
      <path
         d="m 296.53,161.54 c 0,0 -9.51,0.53 -9.71,1.51 -0.2,0.98 0.06,3.44 0.72,3.46 0.66,0.02 9.15,0.34 9.35,-0.59 0.2,-0.93 0.75,-3.04 -0.36,-4.38 z"
         style="fill:#ffffff;stroke:#263238;stroke-width:0.948052;stroke-linecap:round;stroke-linejoin:round"
         id="path174" />
      <path
         d="m 295.23,166.16 c 0,0 -7.88,0.44 -8,1.25 -0.12,0.81 0.05,2.85 0.6,2.87 0.55,0.02 7.57,0.28 7.73,-0.49 0.16,-0.77 0.59,-2.52 -0.33,-3.63 z"
         style="fill:#ffffff;stroke:#263238;stroke-width:0.948052;stroke-linecap:round;stroke-linejoin:round"
         id="path176" />
      <path
         d="m 296.12,151.57 c 0,0 -10.68,0.92 -10.86,2 -0.18,1.08 0.18,3.86 0.92,3.86 0.74,0 10.3,0.08 10.49,-1 0.19,-1.08 0.74,-3.43 -0.55,-4.86 z"
         style="fill:#ffffff;stroke:#263238;stroke-width:0.948052;stroke-linecap:round;stroke-linejoin:round"
         id="path178" />
      <polygon
         points="298.62,171.38 295.52,169.79 287.11,180.1 290.56,184.7 "
         style="fill:#ffffff;stroke:#263238;stroke-width:0.948052;stroke-linecap:round;stroke-linejoin:round"
         id="polygon180" />
      <path
         d="m 298,169.56 c 0,0 -3.06,7.13 -5.35,9.68 -2.29,2.55 -4.85,4.84 -4.85,4.84 0,0 10.7,25.23 12.2,30.07 1.5,4.84 7.39,8.15 9.94,8.91 2.55,0.76 8.66,-1.27 11,-3.82 2.34,-2.55 5.6,-10.7 3.82,-15.28 -1.78,-4.58 -26.76,-34.4 -26.76,-34.4 z"
         style="fill:#006a39;stroke:#263238;stroke-width:0.948052;stroke-linecap:round;stroke-linejoin:round"
         id="path182" />
      <circle
         cx="309.04001"
         cy="130.13"
         r="25.870001"
         transform="rotate(-14.51,308.96369,130.09324)"
         style="fill:#006a39;stroke:#263238;stroke-width:0.948052;stroke-linecap:round;stroke-linejoin:round"
         id="circle184" />
      <circle
         cx="309.04001"
         cy="130.13"
         r="21.08"
         transform="rotate(-13.02,308.91214,130.10574)"
         style="fill:#263238;stroke:#263238;stroke-width:0.948052;stroke-linecap:round;stroke-linejoin:round"
         id="circle186" />
      <circle
         cx="307.01001"
         cy="131.14"
         r="8.5500002"
         style="fill:#ffffff;stroke:#263238;stroke-width:0.948052;stroke-linecap:round;stroke-linejoin:round"
         id="circle188" />
      <path
         d="m 313.76,130.13 a 4.72,4.72 0 1 0 -4.72,4.71 4.72,4.72 0 0 0 4.72,-4.71 z"
         style="fill:#006a39;stroke:#263238;stroke-width:0.948052;stroke-linecap:round;stroke-linejoin:round"
         id="path190" />
    </g>
    <g
       id="freepik--Floor--inject-4"
       style="stroke-width:0.948052">
      <line
         x1="455.07001"
         y1="459.12"
         x2="465.91"
         y2="459.12"
         style="fill:none;stroke:#263238;stroke-width:0.948052;stroke-linecap:round;stroke-linejoin:round"
         id="line193" />
      <line
         x1="48.599998"
         y1="459.12"
         x2="447.63"
         y2="459.12"
         style="fill:none;stroke:#263238;stroke-width:0.948052;stroke-linecap:round;stroke-linejoin:round"
         id="line195" />
    </g>
  </g>
</svg>
